<svg xmlns="http://www.w3.org/2000/svg" xmlns:xlink="http://www.w3.org/1999/xlink" width="800" zoomAndPan="magnify" viewBox="0 0 600 149.999998" height="200" preserveAspectRatio="xMidYMid meet" version="1.0"><defs><g/></defs><rect x="-60" width="720" fill="#ffffff" y="-15" height="179.999997" fill-opacity="1"/><rect x="-60" width="720" fill="#ffffff" y="-15" height="179.999997" fill-opacity="1"/><g fill="#000000" fill-opacity="1"><g transform="translate(110.378905, 85.499997)"><g><path d="M 34.53125 10.515625 L 34.578125 10.59375 C 34.460938 10.59375 34.316406 10.539062 34.140625 10.4375 C 33.972656 10.320312 33.796875 10.191406 33.609375 10.046875 C 33.421875 9.898438 33.234375 9.757812 33.046875 9.625 C 32.972656 9.550781 32.898438 9.476562 32.828125 9.40625 C 32.765625 9.34375 32.691406 9.285156 32.609375 9.234375 C 32.367188 9.046875 32.132812 8.859375 31.90625 8.671875 C 31.6875 8.484375 31.46875 8.296875 31.25 8.109375 C 30.769531 7.710938 30.289062 7.320312 29.8125 6.9375 C 29.332031 6.550781 28.84375 6.171875 28.34375 5.796875 C 27.96875 5.503906 27.585938 5.21875 27.203125 4.9375 C 26.816406 4.65625 26.4375 4.367188 26.0625 4.078125 C 25.957031 3.992188 25.835938 3.90625 25.703125 3.8125 C 25.566406 3.71875 25.429688 3.632812 25.296875 3.5625 C 25.035156 3.394531 24.773438 3.21875 24.515625 3.03125 C 24.265625 2.851562 24.046875 2.671875 23.859375 2.484375 C 21.003906 0.378906 18.445312 -1.3125 16.1875 -2.59375 C 15.570312 -2.914062 15.101562 -3.078125 14.78125 -3.078125 C 14.363281 -3.078125 13.992188 -2.785156 13.671875 -2.203125 C 13.484375 -1.878906 13.1875 -1.285156 12.78125 -0.421875 C 12.382812 0.441406 11.925781 1.453125 11.40625 2.609375 C 10.882812 3.773438 10.34375 4.988281 9.78125 6.25 C 9.226562 7.519531 8.695312 8.738281 8.1875 9.90625 C 7.6875 11.082031 7.25 12.101562 6.875 12.96875 C 6.5 13.832031 6.234375 14.4375 6.078125 14.78125 C 5.804688 15.445312 5.523438 16.117188 5.234375 16.796875 C 4.941406 17.484375 4.632812 18.160156 4.3125 18.828125 C 4.289062 18.898438 4.257812 18.976562 4.21875 19.0625 C 4.175781 19.144531 4.140625 19.226562 4.109375 19.3125 C 4.035156 19.488281 3.960938 19.65625 3.890625 19.8125 C 3.828125 19.976562 3.742188 20.140625 3.640625 20.296875 C 3.554688 20.429688 3.460938 20.550781 3.359375 20.65625 C 3.253906 20.769531 3.132812 20.828125 3 20.828125 C 2.863281 20.828125 2.71875 20.769531 2.5625 20.65625 C 1.96875 20.34375 1.789062 19.878906 2.03125 19.265625 C 2.40625 18.328125 2.78125 17.390625 3.15625 16.453125 C 3.53125 15.523438 3.90625 14.597656 4.28125 13.671875 L 4.84375 12.3125 C 4.945312 12.039062 5.164062 11.507812 5.5 10.71875 C 5.832031 9.9375 6.226562 9 6.6875 7.90625 C 7.15625 6.820312 7.648438 5.6875 8.171875 4.5 C 8.691406 3.3125 9.1875 2.171875 9.65625 1.078125 C 10.125 -0.015625 10.53125 -0.953125 10.875 -1.734375 C 11.21875 -2.523438 11.441406 -3.050781 11.546875 -3.3125 C 11.648438 -3.53125 11.71875 -3.734375 11.75 -3.921875 C 11.78125 -4.109375 11.738281 -4.28125 11.625 -4.4375 C 11.46875 -4.707031 11.097656 -4.929688 10.515625 -5.109375 L 9.828125 -5.3125 C 9.085938 -5.53125 8.328125 -5.726562 7.546875 -5.90625 C 6.773438 -6.09375 6.003906 -6.226562 5.234375 -6.3125 C 4.941406 -6.34375 4.648438 -6.40625 4.359375 -6.5 C 4.066406 -6.59375 3.851562 -6.785156 3.71875 -7.078125 C 3.445312 -7.628906 3.695312 -8.039062 4.46875 -8.3125 C 6.070312 -8.789062 7.570312 -9.242188 8.96875 -9.671875 C 10.375 -10.097656 11.78125 -10.5 13.1875 -10.875 C 14.3125 -11.132812 15.070312 -11.773438 15.46875 -12.796875 C 17.65625 -18.015625 19.867188 -22.71875 22.109375 -26.90625 C 22.128906 -26.957031 22.191406 -27.035156 22.296875 -27.140625 C 22.378906 -27.222656 22.457031 -27.320312 22.53125 -27.4375 C 22.613281 -27.5625 22.644531 -27.703125 22.625 -27.859375 C 22.539062 -28.128906 22.25 -28.421875 21.75 -28.734375 C 21.6875 -28.867188 21.757812 -29.046875 21.96875 -29.265625 C 22.1875 -29.492188 22.390625 -29.703125 22.578125 -29.890625 C 22.660156 -29.972656 22.738281 -30.050781 22.8125 -30.125 C 22.894531 -30.207031 22.976562 -30.289062 23.0625 -30.375 L 23.21875 -30.578125 C 23.351562 -30.734375 23.503906 -30.890625 23.671875 -31.046875 C 23.847656 -31.210938 24.046875 -31.296875 24.265625 -31.296875 C 24.472656 -31.296875 24.695312 -31.1875 24.9375 -30.96875 C 25.257812 -30.707031 25.398438 -30.4375 25.359375 -30.15625 C 25.316406 -29.875 25.21875 -29.5625 25.0625 -29.21875 L 24.9375 -28.984375 C 24.25 -27.429688 23.554688 -25.878906 22.859375 -24.328125 C 22.171875 -22.785156 21.476562 -21.242188 20.78125 -19.703125 L 18.1875 -13.90625 C 18.132812 -13.75 18.070312 -13.597656 18 -13.453125 C 17.9375 -13.304688 17.878906 -13.148438 17.828125 -12.984375 L 17.59375 -12.3125 L 17.828125 -12.265625 C 17.984375 -12.242188 18.128906 -12.234375 18.265625 -12.234375 C 18.640625 -12.234375 18.925781 -12.332031 19.125 -12.53125 C 19.320312 -12.726562 19.503906 -12.9375 19.671875 -13.15625 C 19.773438 -13.3125 19.851562 -13.429688 19.90625 -13.515625 C 21.613281 -15.566406 23.457031 -17.582031 25.4375 -19.5625 C 27.425781 -21.550781 29.738281 -23.238281 32.375 -24.625 C 33.09375 -25 33.851562 -25.332031 34.65625 -25.625 C 35.457031 -25.914062 36.335938 -26.0625 37.296875 -26.0625 L 37.578125 -26.0625 C 38.847656 -26.03125 39.816406 -25.628906 40.484375 -24.859375 C 41.128906 -24.085938 41.289062 -23.128906 40.96875 -21.984375 C 40.644531 -20.753906 40.070312 -19.742188 39.25 -18.953125 C 38.425781 -18.171875 37.585938 -17.488281 36.734375 -16.90625 C 33.078125 -14.40625 28.597656 -12.671875 23.296875 -11.703125 C 19.890625 -11.066406 17.441406 -9.191406 15.953125 -6.078125 C 15.835938 -5.890625 15.726562 -5.695312 15.625 -5.5 C 15.519531 -5.300781 15.414062 -5.109375 15.3125 -4.921875 L 14.984375 -4.359375 L 15.265625 -4.15625 C 15.316406 -4.125 15.503906 -4.007812 15.828125 -3.8125 C 16.148438 -3.613281 16.515625 -3.390625 16.921875 -3.140625 C 17.335938 -2.890625 17.734375 -2.640625 18.109375 -2.390625 C 18.484375 -2.148438 18.75 -1.992188 18.90625 -1.921875 C 20.132812 -1.117188 21.359375 -0.265625 22.578125 0.640625 C 24.015625 1.679688 25.425781 2.78125 26.8125 3.9375 C 28.195312 5.09375 29.554688 6.242188 30.890625 7.390625 C 31.453125 7.867188 32.007812 8.347656 32.5625 8.828125 C 33.125 9.304688 33.6875 9.785156 34.25 10.265625 C 34.414062 10.378906 34.507812 10.460938 34.53125 10.515625 Z M 13.546875 -9.15625 L 13.3125 -9.109375 C 11.070312 -8.734375 8.925781 -8.175781 6.875 -7.4375 L 6.46875 -7.28125 L 6.953125 -7.15625 C 8.148438 -6.78125 9.128906 -6.492188 9.890625 -6.296875 C 10.648438 -6.097656 11.242188 -6 11.671875 -6 C 12.335938 -6 12.765625 -6.226562 12.953125 -6.6875 C 13.140625 -7.15625 13.328125 -7.882812 13.515625 -8.875 Z M 39.609375 -24.65625 C 39.078125 -25.25 38.398438 -25.546875 37.578125 -25.546875 C 37.203125 -25.546875 36.757812 -25.488281 36.25 -25.375 C 34.144531 -24.820312 32.269531 -23.984375 30.625 -22.859375 C 28.988281 -21.742188 27.503906 -20.476562 26.171875 -19.0625 C 24.847656 -17.65625 23.554688 -16.21875 22.296875 -14.75 L 20.90625 -13.109375 L 21.390625 -13.1875 C 25.941406 -14.007812 29.910156 -15.207031 33.296875 -16.78125 C 34.460938 -17.320312 35.59375 -17.953125 36.6875 -18.671875 C 37.78125 -19.390625 38.703125 -20.320312 39.453125 -21.46875 C 39.742188 -21.863281 39.984375 -22.332031 40.171875 -22.875 C 40.359375 -23.425781 40.171875 -24.019531 39.609375 -24.65625 Z M 39.609375 -24.65625 "/></g></g></g><g fill="#000000" fill-opacity="1"><g transform="translate(138.479641, 85.499997)"><g><path d="M 13.671875 -5.921875 C 13.859375 -6.023438 14.070312 -6.078125 14.3125 -6.078125 C 14.332031 -5.941406 14.273438 -5.8125 14.140625 -5.6875 C 14.015625 -5.570312 13.898438 -5.460938 13.796875 -5.359375 L 13.546875 -5.15625 C 12.585938 -4.4375 11.613281 -3.734375 10.625 -3.046875 C 9.644531 -2.367188 8.585938 -1.8125 7.453125 -1.375 C 6.316406 -0.9375 5.054688 -0.71875 3.671875 -0.71875 L 3.515625 -0.71875 C 2.160156 -0.71875 1.109375 -1.128906 0.359375 -1.953125 C -0.304688 -2.734375 -0.53125 -3.664062 -0.3125 -4.75 C 0.425781 -8.40625 2.796875 -10.765625 6.796875 -11.828125 C 7.003906 -11.878906 7.21875 -11.90625 7.4375 -11.90625 C 8.070312 -11.90625 8.59375 -11.628906 9 -11.078125 C 9.3125 -10.648438 9.40625 -10.28125 9.28125 -9.96875 C 9.164062 -9.664062 8.988281 -9.351562 8.75 -9.03125 C 7.6875 -7.726562 5.929688 -6.890625 3.484375 -6.515625 C 2.597656 -6.378906 2.019531 -6.03125 1.75 -5.46875 C 1.488281 -4.914062 1.289062 -4.316406 1.15625 -3.671875 L 1.125 -3.390625 C 1.039062 -3.023438 1.101562 -2.679688 1.3125 -2.359375 C 1.613281 -1.960938 2.082031 -1.671875 2.71875 -1.484375 C 3.195312 -1.347656 3.703125 -1.28125 4.234375 -1.28125 C 4.660156 -1.28125 5.070312 -1.316406 5.46875 -1.390625 C 5.875 -1.472656 6.300781 -1.582031 6.75 -1.71875 C 8.164062 -2.113281 9.578125 -2.789062 10.984375 -3.75 C 11.597656 -4.15625 12.210938 -4.640625 12.828125 -5.203125 C 12.878906 -5.222656 12.929688 -5.257812 12.984375 -5.3125 C 13.035156 -5.363281 13.09375 -5.414062 13.15625 -5.46875 C 13.226562 -5.550781 13.304688 -5.625 13.390625 -5.6875 C 13.472656 -5.757812 13.566406 -5.835938 13.671875 -5.921875 Z M 3.953125 -7.953125 L 3.671875 -7.640625 L 4.109375 -7.75 C 5.046875 -7.96875 5.835938 -8.25 6.484375 -8.59375 C 7.140625 -8.9375 7.707031 -9.492188 8.1875 -10.265625 L 8.359375 -10.59375 L 8 -10.46875 C 7.21875 -10.226562 6.492188 -9.925781 5.828125 -9.5625 C 5.171875 -9.207031 4.546875 -8.671875 3.953125 -7.953125 Z M 3.953125 -7.953125 "/></g></g></g><g fill="#000000" fill-opacity="1"><g transform="translate(152.110298, 85.499997)"><g><path d="M 20.546875 -7.796875 C 20.679688 -7.765625 20.757812 -7.738281 20.78125 -7.71875 C 20.863281 -7.582031 20.8125 -7.40625 20.625 -7.1875 C 17.875 -4.3125 14.53125 -1.78125 10.59375 0.40625 L 10.3125 0.515625 C 10.175781 0.617188 10.019531 0.710938 9.84375 0.796875 C 9.675781 0.878906 9.5 0.921875 9.3125 0.921875 C 9.039062 0.921875 8.757812 0.800781 8.46875 0.5625 C 8.125 0.238281 7.957031 -0.0625 7.96875 -0.34375 C 7.988281 -0.625 8.050781 -0.921875 8.15625 -1.234375 C 8.175781 -1.285156 8.203125 -1.335938 8.234375 -1.390625 C 8.265625 -1.453125 8.28125 -1.507812 8.28125 -1.5625 C 8.519531 -2.414062 8.816406 -3.234375 9.171875 -4.015625 C 9.535156 -4.804688 9.898438 -5.5625 10.265625 -6.28125 C 10.265625 -6.28125 10.351562 -6.4375 10.53125 -6.75 C 10.707031 -7.070312 10.894531 -7.410156 11.09375 -7.765625 C 11.289062 -8.128906 11.429688 -8.378906 11.515625 -8.515625 C 11.515625 -8.535156 11.566406 -8.613281 11.671875 -8.75 C 11.910156 -9.09375 12.113281 -9.453125 12.28125 -9.828125 C 12.457031 -10.203125 12.507812 -10.5 12.4375 -10.71875 C 12.375 -10.84375 12.289062 -10.929688 12.1875 -10.984375 C 12.113281 -11.015625 12.046875 -11.03125 11.984375 -11.03125 C 11.722656 -11.03125 11.429688 -10.882812 11.109375 -10.59375 C 10.785156 -10.300781 10.625 -10.15625 10.625 -10.15625 C 10.445312 -9.9375 10.265625 -9.664062 10.078125 -9.34375 C 9.890625 -9.03125 9.78125 -8.675781 9.75 -8.28125 L 9.75 -8.109375 C 9.75 -8.003906 9.742188 -7.882812 9.734375 -7.75 C 9.722656 -7.613281 9.675781 -7.546875 9.59375 -7.546875 C 9.5625 -7.546875 9.5 -7.566406 9.40625 -7.609375 C 9.3125 -7.648438 9.1875 -7.75 9.03125 -7.90625 L 8.90625 -8.03125 L 8.671875 -7.75 C 8.585938 -7.695312 8.515625 -7.628906 8.453125 -7.546875 C 8.390625 -7.472656 8.332031 -7.410156 8.28125 -7.359375 C 7.957031 -7.003906 7.65625 -6.660156 7.375 -6.328125 C 7.09375 -5.992188 6.804688 -5.671875 6.515625 -5.359375 C 5.878906 -4.609375 5.226562 -3.863281 4.5625 -3.125 C 3.894531 -2.394531 3.171875 -1.710938 2.390625 -1.078125 L 2.125 -0.84375 C 1.882812 -0.625 1.628906 -0.421875 1.359375 -0.234375 C 1.085938 -0.046875 0.796875 0.046875 0.484375 0.046875 C 0.210938 0.046875 -0.0664062 -0.046875 -0.359375 -0.234375 C -0.921875 -0.640625 -1.1875 -1.109375 -1.15625 -1.640625 C -1.132812 -2.171875 -1.054688 -2.691406 -0.921875 -3.203125 L -0.875 -3.4375 C -0.238281 -6 0.90625 -8.195312 2.5625 -10.03125 C 3.707031 -11.3125 5.066406 -11.953125 6.640625 -11.953125 L 6.75 -11.953125 C 7.101562 -11.953125 7.4375 -11.929688 7.75 -11.890625 C 8.070312 -11.847656 8.3125 -11.722656 8.46875 -11.515625 C 8.945312 -10.816406 9.398438 -10.46875 9.828125 -10.46875 C 10.046875 -10.46875 10.234375 -10.535156 10.390625 -10.671875 C 10.546875 -10.804688 10.71875 -10.953125 10.90625 -11.109375 L 11.03125 -11.234375 C 11.269531 -11.472656 11.535156 -11.660156 11.828125 -11.796875 C 11.960938 -11.847656 12.085938 -11.890625 12.203125 -11.921875 C 12.328125 -11.960938 12.441406 -11.984375 12.546875 -11.984375 C 12.734375 -11.984375 12.921875 -11.921875 13.109375 -11.796875 C 13.316406 -11.609375 13.414062 -11.421875 13.40625 -11.234375 C 13.394531 -11.046875 13.335938 -10.84375 13.234375 -10.625 C 12.773438 -9.644531 12.316406 -8.679688 11.859375 -7.734375 C 11.410156 -6.785156 10.960938 -5.847656 10.515625 -4.921875 L 9.796875 -3.390625 C 9.628906 -3.097656 9.484375 -2.789062 9.359375 -2.46875 C 9.242188 -2.15625 9.132812 -1.851562 9.03125 -1.5625 L 8.828125 -0.953125 C 8.722656 -0.691406 8.710938 -0.492188 8.796875 -0.359375 C 8.847656 -0.273438 8.925781 -0.207031 9.03125 -0.15625 C 9.113281 -0.132812 9.207031 -0.125 9.3125 -0.125 C 9.582031 -0.125 9.890625 -0.203125 10.234375 -0.359375 C 10.578125 -0.515625 10.816406 -0.632812 10.953125 -0.71875 C 11.804688 -1.300781 12.644531 -1.890625 13.46875 -2.484375 C 14.289062 -3.085938 15.09375 -3.6875 15.875 -4.28125 C 16.132812 -4.46875 16.382812 -4.660156 16.625 -4.859375 C 16.863281 -5.054688 17.117188 -5.25 17.390625 -5.4375 C 17.546875 -5.570312 17.707031 -5.710938 17.875 -5.859375 C 18.050781 -6.003906 18.234375 -6.144531 18.421875 -6.28125 C 18.503906 -6.351562 18.582031 -6.421875 18.65625 -6.484375 C 18.738281 -6.554688 18.832031 -6.617188 18.9375 -6.671875 C 19.070312 -6.804688 19.21875 -6.929688 19.375 -7.046875 C 19.539062 -7.171875 19.703125 -7.300781 19.859375 -7.4375 L 20.03125 -7.515625 C 20.101562 -7.566406 20.1875 -7.625 20.28125 -7.6875 C 20.375 -7.757812 20.460938 -7.796875 20.546875 -7.796875 Z M 8.875 -9.3125 C 9.132812 -9.601562 9.117188 -9.953125 8.828125 -10.359375 C 8.484375 -10.804688 8.070312 -11.03125 7.59375 -11.03125 C 7.539062 -11.03125 7.488281 -11.03125 7.4375 -11.03125 C 6.769531 -10.894531 6.179688 -10.679688 5.671875 -10.390625 C 4.503906 -9.703125 3.5625 -8.835938 2.84375 -7.796875 C 2.125 -6.753906 1.492188 -5.726562 0.953125 -4.71875 C 0.898438 -4.613281 0.835938 -4.503906 0.765625 -4.390625 C 0.703125 -4.285156 0.644531 -4.179688 0.59375 -4.078125 C 0.4375 -3.835938 0.289062 -3.582031 0.15625 -3.3125 C 0.0195312 -3.050781 -0.0820312 -2.757812 -0.15625 -2.4375 C -0.1875 -2.300781 -0.203125 -2.0625 -0.203125 -1.71875 C -0.203125 -1.375 -0.109375 -1.117188 0.078125 -0.953125 C 0.160156 -0.847656 0.269531 -0.796875 0.40625 -0.796875 C 0.507812 -0.796875 0.640625 -0.835938 0.796875 -0.921875 C 1.941406 -1.640625 2.960938 -2.488281 3.859375 -3.46875 C 4.753906 -4.457031 5.613281 -5.457031 6.4375 -6.46875 C 6.832031 -6.945312 7.226562 -7.425781 7.625 -7.90625 C 8.03125 -8.394531 8.445312 -8.863281 8.875 -9.3125 Z M 8.875 -9.3125 "/></g></g></g><g fill="#000000" fill-opacity="1"><g transform="translate(171.57696, 85.499997)"><g><path d="M 17.0625 -34.65625 C 17.382812 -34.363281 17.507812 -34.085938 17.4375 -33.828125 C 17.375 -33.578125 17.222656 -33.289062 16.984375 -32.96875 C 16.660156 -32.601562 16.359375 -32.207031 16.078125 -31.78125 C 15.804688 -31.351562 15.523438 -30.9375 15.234375 -30.53125 C 15.203125 -30.507812 15.175781 -30.484375 15.15625 -30.453125 C 15.144531 -30.429688 15.128906 -30.40625 15.109375 -30.375 C 13.671875 -28.300781 12.296875 -26.207031 10.984375 -24.09375 C 8.054688 -19.332031 5.421875 -14.335938 3.078125 -9.109375 C 0.734375 -3.890625 -1.144531 1.503906 -2.5625 7.078125 C -3.519531 10.910156 -3.957031 14.414062 -3.875 17.59375 C -3.875 17.71875 -3.890625 17.847656 -3.921875 17.984375 C -3.921875 18.273438 -3.90625 18.550781 -3.875 18.8125 C -3.851562 19.082031 -3.734375 19.328125 -3.515625 19.546875 C -3.253906 19.867188 -2.800781 20.066406 -2.15625 20.140625 C -2.050781 20.140625 -1.957031 20.191406 -1.875 20.296875 C -1.738281 20.410156 -1.660156 20.570312 -1.640625 20.78125 C -1.609375 21.019531 -1.648438 21.179688 -1.765625 21.265625 C -1.890625 21.347656 -2.035156 21.390625 -2.203125 21.390625 L -2.234375 21.390625 C -3.703125 21.390625 -4.648438 20.695312 -5.078125 19.3125 C -5.285156 18.5625 -5.382812 17.835938 -5.375 17.140625 C -5.363281 16.453125 -5.316406 15.773438 -5.234375 15.109375 L -5.203125 14.703125 C -4.847656 10.710938 -4.117188 6.84375 -3.015625 3.09375 C -1.910156 -0.644531 -0.585938 -4.28125 0.953125 -7.8125 C 2.503906 -11.34375 4.101562 -14.773438 5.75 -18.109375 C 7.164062 -20.929688 8.613281 -23.71875 10.09375 -26.46875 C 11.570312 -29.226562 13.378906 -31.769531 15.515625 -34.09375 C 15.535156 -34.144531 15.597656 -34.238281 15.703125 -34.375 C 15.816406 -34.507812 15.929688 -34.632812 16.046875 -34.75 C 16.171875 -34.875 16.3125 -34.9375 16.46875 -34.9375 C 16.625 -34.9375 16.820312 -34.84375 17.0625 -34.65625 Z M 17.0625 -34.65625 "/></g></g></g><g fill="#000000" fill-opacity="1"><g transform="translate(179.171751, 85.499997)"><g/></g></g><g fill="#000000" fill-opacity="1"><g transform="translate(191.163534, 85.499997)"><g><path d="M 15.0625 9.953125 C 13.625 10.429688 11.921875 10.671875 9.953125 10.671875 C 9.421875 10.671875 8.863281 10.644531 8.28125 10.59375 C 6.300781 10.488281 4.726562 9.769531 3.5625 8.4375 C 2.382812 7.125 1.941406 5.578125 2.234375 3.796875 C 2.453125 2.492188 2.90625 1.390625 3.59375 0.484375 C 4.289062 -0.421875 5.007812 -1.207031 5.75 -1.875 C 7.375 -3.3125 9.179688 -4.515625 11.171875 -5.484375 C 13.160156 -6.460938 15.164062 -7.378906 17.1875 -8.234375 L 18.21875 -8.671875 C 18.539062 -8.804688 18.851562 -8.9375 19.15625 -9.0625 C 19.46875 -9.195312 19.769531 -9.347656 20.0625 -9.515625 L 20.46875 -9.71875 C 20.65625 -9.820312 20.851562 -9.929688 21.0625 -10.046875 C 21.28125 -10.171875 21.46875 -10.3125 21.625 -10.46875 C 21.644531 -10.5 21.707031 -10.585938 21.8125 -10.734375 C 21.925781 -10.878906 21.96875 -11.03125 21.9375 -11.1875 L 21.9375 -11.234375 L 21.828125 -11.390625 C 21.742188 -11.472656 21.609375 -11.515625 21.421875 -11.515625 C 21.367188 -11.515625 21.300781 -11.5 21.21875 -11.46875 C 21.269531 -11.5 21.320312 -11.519531 21.375 -11.53125 C 21.4375 -11.539062 21.492188 -11.546875 21.546875 -11.546875 C 21.679688 -11.578125 21.804688 -11.601562 21.921875 -11.625 C 22.046875 -11.65625 22.160156 -11.671875 22.265625 -11.671875 C 22.640625 -11.671875 22.921875 -11.507812 23.109375 -11.1875 C 23.265625 -10.925781 23.269531 -10.6875 23.125 -10.46875 C 22.976562 -10.257812 22.757812 -10.046875 22.46875 -9.828125 L 22.296875 -9.71875 C 21.609375 -9.15625 20.863281 -8.664062 20.0625 -8.25 C 19.257812 -7.84375 18.445312 -7.4375 17.625 -7.03125 C 17.351562 -6.894531 17.078125 -6.757812 16.796875 -6.625 C 16.523438 -6.5 16.242188 -6.367188 15.953125 -6.234375 C 14.210938 -5.328125 12.488281 -4.375 10.78125 -3.375 C 9.082031 -2.375 7.550781 -1.171875 6.1875 0.234375 C 4.988281 1.515625 4.234375 2.820312 3.921875 4.15625 C 3.546875 5.59375 3.785156 6.832031 4.640625 7.875 C 5.492188 8.9375 6.757812 9.535156 8.4375 9.671875 C 9.050781 9.722656 9.648438 9.75 10.234375 9.75 C 13.429688 9.75 16.664062 8.960938 19.9375 7.390625 C 25.75 4.617188 31.203125 0.539062 36.296875 -4.84375 L 36.453125 -5 C 36.554688 -5.132812 36.675781 -5.265625 36.8125 -5.390625 C 36.945312 -5.523438 37.078125 -5.644531 37.203125 -5.75 C 37.265625 -5.78125 37.332031 -5.820312 37.40625 -5.875 C 37.488281 -5.925781 37.554688 -5.953125 37.609375 -5.953125 C 37.691406 -5.816406 37.691406 -5.675781 37.609375 -5.53125 C 37.523438 -5.382812 37.457031 -5.273438 37.40625 -5.203125 C 35.8125 -3.578125 34.296875 -2.085938 32.859375 -0.734375 C 31.421875 0.609375 29.914062 1.851562 28.34375 3 C 24.820312 5.613281 21.144531 7.664062 17.3125 9.15625 C 16.59375 9.414062 15.84375 9.679688 15.0625 9.953125 Z M 13.109375 -9.3125 C 12.492188 -9.15625 11.867188 -9.078125 11.234375 -9.078125 C 10.535156 -9.078125 9.84375 -9.171875 9.15625 -9.359375 C 7.875 -9.671875 6.941406 -10.210938 6.359375 -10.984375 C 5.796875 -11.765625 5.59375 -12.710938 5.75 -13.828125 C 5.988281 -15.484375 6.816406 -17.039062 8.234375 -18.5 C 12.835938 -23.300781 18.140625 -26.328125 24.140625 -27.578125 C 24.222656 -27.578125 24.316406 -27.59375 24.421875 -27.625 C 24.503906 -27.644531 24.578125 -27.660156 24.640625 -27.671875 C 24.703125 -27.691406 24.773438 -27.710938 24.859375 -27.734375 C 25.390625 -27.785156 25.894531 -27.8125 26.375 -27.8125 C 28.5625 -27.8125 30.269531 -27.175781 31.5 -25.90625 C 32.851562 -24.488281 33.382812 -22.488281 33.09375 -19.90625 C 32.90625 -18.195312 32.53125 -16.851562 31.96875 -15.875 C 31.757812 -15.5 31.507812 -15.3125 31.21875 -15.3125 C 31.050781 -15.3125 30.878906 -15.363281 30.703125 -15.46875 C 30.109375 -15.789062 29.929688 -16.269531 30.171875 -16.90625 C 30.253906 -17.144531 30.34375 -17.378906 30.4375 -17.609375 C 30.53125 -17.835938 30.617188 -18.070312 30.703125 -18.3125 C 30.878906 -18.789062 31.054688 -19.269531 31.234375 -19.75 C 31.410156 -20.226562 31.5625 -20.71875 31.6875 -21.21875 C 32.0625 -22.957031 31.796875 -24.332031 30.890625 -25.34375 C 30.015625 -26.320312 28.644531 -26.8125 26.78125 -26.8125 L 26.578125 -26.8125 C 25.347656 -26.8125 24.015625 -26.546875 22.578125 -26.015625 C 16.453125 -23.753906 11.804688 -20.253906 8.640625 -15.515625 L 8.359375 -15.140625 C 8.117188 -14.796875 7.894531 -14.4375 7.6875 -14.0625 C 7.488281 -13.695312 7.390625 -13.300781 7.390625 -12.875 C 7.390625 -12.445312 7.578125 -11.992188 7.953125 -11.515625 C 8.773438 -10.554688 9.945312 -10.078125 11.46875 -10.078125 C 11.757812 -10.078125 12.046875 -10.085938 12.328125 -10.109375 C 12.609375 -10.140625 12.867188 -10.164062 13.109375 -10.1875 C 13.859375 -10.300781 14.601562 -10.414062 15.34375 -10.53125 C 16.09375 -10.65625 16.84375 -10.769531 17.59375 -10.875 C 18.144531 -10.976562 18.707031 -11.078125 19.28125 -11.171875 C 19.851562 -11.265625 20.421875 -11.363281 20.984375 -11.46875 C 20.953125 -11.445312 20.925781 -11.4375 20.90625 -11.4375 C 20.71875 -11.40625 20.550781 -11.367188 20.40625 -11.328125 C 20.257812 -11.285156 20.101562 -11.238281 19.9375 -11.1875 C 19.9375 -11.1875 19.796875 -11.140625 19.515625 -11.046875 C 19.242188 -10.953125 19.023438 -10.878906 18.859375 -10.828125 C 18.648438 -10.773438 18.4375 -10.710938 18.21875 -10.640625 C 18.007812 -10.578125 17.785156 -10.507812 17.546875 -10.4375 C 16.828125 -10.25 16.09375 -10.0625 15.34375 -9.875 C 14.601562 -9.6875 13.859375 -9.5 13.109375 -9.3125 Z M 13.109375 -9.3125 "/></g></g></g><g fill="#000000" fill-opacity="1"><g transform="translate(227.778434, 85.499997)"><g><path d="M 13.59375 -7.078125 L 13.671875 -6.921875 C 13.671875 -6.804688 13.539062 -6.722656 13.28125 -6.671875 C 13.03125 -6.617188 12.828125 -6.582031 12.671875 -6.5625 C 12.515625 -6.53125 12.421875 -6.515625 12.390625 -6.515625 C 12.015625 -6.410156 11.640625 -6.3125 11.265625 -6.21875 C 10.898438 -6.125 10.53125 -6.007812 10.15625 -5.875 C 8.738281 -5.445312 7.523438 -4.976562 6.515625 -4.46875 C 5.742188 -4.070312 5.023438 -3.609375 4.359375 -3.078125 C 3.691406 -2.546875 3.265625 -1.734375 3.078125 -0.640625 C 2.703125 1.359375 1.515625 3.222656 -0.484375 4.953125 C -1.253906 5.617188 -2.039062 5.953125 -2.84375 5.953125 C -3.394531 5.953125 -3.875 5.78125 -4.28125 5.4375 C -4.8125 4.976562 -5.078125 4.375 -5.078125 3.625 C -5.078125 2.882812 -4.796875 2.179688 -4.234375 1.515625 C -3.546875 0.640625 -2.726562 -0.113281 -1.78125 -0.75 C -0.832031 -1.394531 0.132812 -1.972656 1.125 -2.484375 C 1.726562 -2.796875 2.054688 -3.175781 2.109375 -3.625 C 2.171875 -4.082031 1.960938 -4.671875 1.484375 -5.390625 C 1.296875 -5.628906 1.117188 -5.875 0.953125 -6.125 C 0.796875 -6.382812 0.640625 -6.648438 0.484375 -6.921875 L 0.203125 -7.390625 C -0.410156 -8.378906 -0.410156 -9.179688 0.203125 -9.796875 C 2.253906 -11.867188 4.820312 -13 7.90625 -13.1875 L 8.109375 -13.1875 C 8.804688 -13.1875 9.34375 -12.972656 9.71875 -12.546875 C 10.113281 -12.097656 10.234375 -11.488281 10.078125 -10.71875 C 9.890625 -9.914062 9.394531 -9.222656 8.59375 -8.640625 C 8.539062 -8.578125 8.46875 -8.519531 8.375 -8.46875 C 8.28125 -8.414062 8.179688 -8.390625 8.078125 -8.390625 C 7.960938 -8.390625 7.84375 -8.441406 7.71875 -8.546875 C 7.550781 -8.660156 7.476562 -8.78125 7.5 -8.90625 C 7.53125 -9.039062 7.585938 -9.203125 7.671875 -9.390625 C 7.828125 -9.679688 7.976562 -9.96875 8.125 -10.25 C 8.28125 -10.53125 8.4375 -10.804688 8.59375 -11.078125 C 8.675781 -11.234375 8.734375 -11.390625 8.765625 -11.546875 C 8.804688 -11.710938 8.765625 -11.898438 8.640625 -12.109375 C 8.472656 -12.347656 8.242188 -12.46875 7.953125 -12.46875 C 7.898438 -12.46875 7.804688 -12.457031 7.671875 -12.4375 L 7.546875 -12.4375 C 4.992188 -12.164062 2.945312 -11.191406 1.40625 -9.515625 C 0.894531 -8.953125 0.957031 -8.296875 1.59375 -7.546875 C 1.945312 -7.148438 2.269531 -6.710938 2.5625 -6.234375 C 2.851562 -5.722656 3.128906 -5.300781 3.390625 -4.96875 C 3.660156 -4.632812 4.007812 -4.46875 4.4375 -4.46875 C 4.675781 -4.46875 4.96875 -4.550781 5.3125 -4.71875 C 6.320312 -5.164062 7.351562 -5.5625 8.40625 -5.90625 C 9.457031 -6.257812 10.453125 -6.566406 11.390625 -6.828125 C 11.546875 -6.890625 11.789062 -6.957031 12.125 -7.03125 C 12.457031 -7.113281 12.769531 -7.15625 13.0625 -7.15625 C 13.226562 -7.15625 13.347656 -7.140625 13.421875 -7.109375 C 13.503906 -7.085938 13.5625 -7.078125 13.59375 -7.078125 Z M -1.765625 4.875 C 0.367188 3.757812 1.675781 1.679688 2.15625 -1.359375 L 1.921875 -1.484375 C 1.890625 -1.367188 1.738281 -1.238281 1.46875 -1.09375 C 1.207031 -0.945312 0.972656 -0.820312 0.765625 -0.71875 C 0.492188 -0.582031 0.332031 -0.488281 0.28125 -0.4375 C -0.351562 0.0078125 -0.925781 0.445312 -1.4375 0.875 L -1.71875 1.125 C -2.144531 1.488281 -2.585938 1.914062 -3.046875 2.40625 C -3.515625 2.90625 -3.78125 3.4375 -3.84375 4 C -3.863281 4.34375 -3.78125 4.625 -3.59375 4.84375 C -3.40625 5.019531 -3.128906 5.109375 -2.765625 5.109375 C -2.546875 5.109375 -2.347656 5.082031 -2.171875 5.03125 C -2.003906 4.976562 -1.867188 4.925781 -1.765625 4.875 Z M -1.765625 4.875 "/></g></g></g><g fill="#000000" fill-opacity="1"><g transform="translate(240.289858, 85.499997)"><g><path d="M 23.0625 -19.625 C 23.144531 -19.539062 23.195312 -19.421875 23.21875 -19.265625 C 23.21875 -19.179688 23.195312 -19.101562 23.15625 -19.03125 C 23.125 -18.96875 23.015625 -18.9375 22.828125 -18.9375 C 22.742188 -18.9375 22.65625 -18.941406 22.5625 -18.953125 C 22.46875 -18.972656 22.378906 -18.984375 22.296875 -18.984375 L 22.109375 -19.03125 C 20.640625 -19.21875 19.191406 -19.335938 17.765625 -19.390625 C 16.335938 -19.441406 14.957031 -19.46875 13.625 -19.46875 L 11.59375 -19.421875 C 11.25 -19.421875 10.894531 -19.425781 10.53125 -19.4375 C 10.164062 -19.457031 9.8125 -19.46875 9.46875 -19.46875 C 9.039062 -19.46875 8.679688 -19.410156 8.390625 -19.296875 C 8.097656 -19.191406 7.875 -18.96875 7.71875 -18.625 L 7 -17.265625 C 5.257812 -13.910156 3.5625 -10.457031 1.90625 -6.90625 C 0.257812 -3.363281 -1.050781 0.347656 -2.03125 4.234375 C -2.8125 7.273438 -3.175781 10.0625 -3.125 12.59375 C -3.125 12.695312 -3.125 12.800781 -3.125 12.90625 C -3.125 13.144531 -3.113281 13.367188 -3.09375 13.578125 C -3.082031 13.796875 -3 14 -2.84375 14.1875 C -2.601562 14.425781 -2.242188 14.570312 -1.765625 14.625 C -1.648438 14.625 -1.566406 14.664062 -1.515625 14.75 C -1.410156 14.851562 -1.34375 14.984375 -1.3125 15.140625 C -1.289062 15.328125 -1.332031 15.453125 -1.4375 15.515625 C -1.539062 15.585938 -1.648438 15.625 -1.765625 15.625 L -1.796875 15.625 C -2.972656 15.625 -3.71875 15.066406 -4.03125 13.953125 C -4.21875 13.359375 -4.304688 12.789062 -4.296875 12.25 C -4.285156 11.707031 -4.253906 11.164062 -4.203125 10.625 L -4.15625 10.3125 C -3.945312 7.914062 -3.546875 5.597656 -2.953125 3.359375 C -2.367188 1.117188 -1.671875 -1.050781 -0.859375 -3.15625 C -0.046875 -5.257812 0.769531 -7.335938 1.59375 -9.390625 L 1.84375 -9.90625 C 2.238281 -10.925781 2.675781 -11.921875 3.15625 -12.890625 C 3.632812 -13.859375 4.101562 -14.820312 4.5625 -15.78125 C 4.800781 -16.238281 5.03125 -16.691406 5.25 -17.140625 C 5.476562 -17.597656 5.703125 -18.050781 5.921875 -18.5 C 5.972656 -18.632812 6.003906 -18.785156 6.015625 -18.953125 C 6.023438 -19.128906 5.925781 -19.40625 5.71875 -19.78125 L 5.640625 -19.859375 L 5.5625 -19.859375 C 4.96875 -19.859375 4.363281 -19.859375 3.75 -19.859375 C 3.144531 -19.859375 2.535156 -19.859375 1.921875 -19.859375 C 1.304688 -19.890625 0.6875 -19.90625 0.0625 -19.90625 C -0.5625 -19.90625 -1.195312 -19.90625 -1.84375 -19.90625 C -3.8125 -19.90625 -5.554688 -19.878906 -7.078125 -19.828125 C -7.390625 -19.796875 -7.707031 -19.78125 -8.03125 -19.78125 C -8.351562 -19.78125 -8.675781 -19.78125 -9 -19.78125 C -9.820312 -19.757812 -10.648438 -19.726562 -11.484375 -19.6875 C -12.328125 -19.644531 -13.132812 -19.53125 -13.90625 -19.34375 C -14.144531 -19.289062 -14.347656 -19.265625 -14.515625 -19.265625 C -14.691406 -19.265625 -14.847656 -19.304688 -14.984375 -19.390625 C -15.066406 -19.460938 -15.132812 -19.59375 -15.1875 -19.78125 C -15.238281 -20.019531 -15.117188 -20.140625 -14.828125 -20.140625 C -14.773438 -20.140625 -14.664062 -20.132812 -14.5 -20.125 C -14.34375 -20.113281 -14.265625 -20.109375 -14.265625 -20.109375 L -14.15625 -20.109375 C -12.65625 -20.234375 -11.175781 -20.316406 -9.71875 -20.359375 C -8.269531 -20.398438 -6.972656 -20.421875 -5.828125 -20.421875 C -5.222656 -20.421875 -4.601562 -20.421875 -3.96875 -20.421875 C -3.34375 -20.421875 -2.726562 -20.421875 -2.125 -20.421875 C -1.507812 -20.398438 -0.890625 -20.390625 -0.265625 -20.390625 C 0.359375 -20.390625 0.976562 -20.390625 1.59375 -20.390625 C 2.1875 -20.390625 2.773438 -20.390625 3.359375 -20.390625 C 3.941406 -20.390625 4.523438 -20.398438 5.109375 -20.421875 C 5.671875 -20.453125 6.171875 -20.550781 6.609375 -20.71875 C 7.054688 -20.894531 7.410156 -21.25 7.671875 -21.78125 C 8.796875 -24.125 10.34375 -26.363281 12.3125 -28.5 C 12.332031 -28.550781 12.382812 -28.617188 12.46875 -28.703125 C 12.550781 -28.804688 12.640625 -28.910156 12.734375 -29.015625 C 12.828125 -29.117188 12.9375 -29.171875 13.0625 -29.171875 C 13.195312 -29.171875 13.359375 -29.09375 13.546875 -28.9375 C 13.785156 -28.726562 13.878906 -28.515625 13.828125 -28.296875 C 13.773438 -28.085938 13.671875 -27.863281 13.515625 -27.625 C 13.296875 -27.320312 13.09375 -27.035156 12.90625 -26.765625 C 12.71875 -26.503906 12.53125 -26.253906 12.34375 -26.015625 C 11.757812 -25.222656 11.175781 -24.390625 10.59375 -23.515625 C 10.007812 -22.648438 9.460938 -21.695312 8.953125 -20.65625 L 8.828125 -20.46875 L 12.390625 -20.46875 C 15.210938 -20.46875 18.410156 -20.253906 21.984375 -19.828125 C 22.035156 -19.828125 22.128906 -19.828125 22.265625 -19.828125 C 22.398438 -19.828125 22.539062 -19.8125 22.6875 -19.78125 C 22.832031 -19.757812 22.957031 -19.707031 23.0625 -19.625 Z M 23.0625 -19.625 "/></g></g></g><g fill="#000000" fill-opacity="1"><g transform="translate(247.165148, 85.499997)"><g><path d="M 20.546875 -7.796875 C 20.679688 -7.765625 20.757812 -7.738281 20.78125 -7.71875 C 20.863281 -7.582031 20.8125 -7.40625 20.625 -7.1875 C 17.875 -4.3125 14.53125 -1.78125 10.59375 0.40625 L 10.3125 0.515625 C 10.175781 0.617188 10.019531 0.710938 9.84375 0.796875 C 9.675781 0.878906 9.5 0.921875 9.3125 0.921875 C 9.039062 0.921875 8.757812 0.800781 8.46875 0.5625 C 8.125 0.238281 7.957031 -0.0625 7.96875 -0.34375 C 7.988281 -0.625 8.050781 -0.921875 8.15625 -1.234375 C 8.175781 -1.285156 8.203125 -1.335938 8.234375 -1.390625 C 8.265625 -1.453125 8.28125 -1.507812 8.28125 -1.5625 C 8.519531 -2.414062 8.816406 -3.234375 9.171875 -4.015625 C 9.535156 -4.804688 9.898438 -5.5625 10.265625 -6.28125 C 10.265625 -6.28125 10.351562 -6.4375 10.53125 -6.75 C 10.707031 -7.070312 10.894531 -7.410156 11.09375 -7.765625 C 11.289062 -8.128906 11.429688 -8.378906 11.515625 -8.515625 C 11.515625 -8.535156 11.566406 -8.613281 11.671875 -8.75 C 11.910156 -9.09375 12.113281 -9.453125 12.28125 -9.828125 C 12.457031 -10.203125 12.507812 -10.5 12.4375 -10.71875 C 12.375 -10.84375 12.289062 -10.929688 12.1875 -10.984375 C 12.113281 -11.015625 12.046875 -11.03125 11.984375 -11.03125 C 11.722656 -11.03125 11.429688 -10.882812 11.109375 -10.59375 C 10.785156 -10.300781 10.625 -10.15625 10.625 -10.15625 C 10.445312 -9.9375 10.265625 -9.664062 10.078125 -9.34375 C 9.890625 -9.03125 9.78125 -8.675781 9.75 -8.28125 L 9.75 -8.109375 C 9.75 -8.003906 9.742188 -7.882812 9.734375 -7.75 C 9.722656 -7.613281 9.675781 -7.546875 9.59375 -7.546875 C 9.5625 -7.546875 9.5 -7.566406 9.40625 -7.609375 C 9.3125 -7.648438 9.1875 -7.75 9.03125 -7.90625 L 8.90625 -8.03125 L 8.671875 -7.75 C 8.585938 -7.695312 8.515625 -7.628906 8.453125 -7.546875 C 8.390625 -7.472656 8.332031 -7.410156 8.28125 -7.359375 C 7.957031 -7.003906 7.65625 -6.660156 7.375 -6.328125 C 7.09375 -5.992188 6.804688 -5.671875 6.515625 -5.359375 C 5.878906 -4.609375 5.226562 -3.863281 4.5625 -3.125 C 3.894531 -2.394531 3.171875 -1.710938 2.390625 -1.078125 L 2.125 -0.84375 C 1.882812 -0.625 1.628906 -0.421875 1.359375 -0.234375 C 1.085938 -0.046875 0.796875 0.046875 0.484375 0.046875 C 0.210938 0.046875 -0.0664062 -0.046875 -0.359375 -0.234375 C -0.921875 -0.640625 -1.1875 -1.109375 -1.15625 -1.640625 C -1.132812 -2.171875 -1.054688 -2.691406 -0.921875 -3.203125 L -0.875 -3.4375 C -0.238281 -6 0.90625 -8.195312 2.5625 -10.03125 C 3.707031 -11.3125 5.066406 -11.953125 6.640625 -11.953125 L 6.75 -11.953125 C 7.101562 -11.953125 7.4375 -11.929688 7.75 -11.890625 C 8.070312 -11.847656 8.3125 -11.722656 8.46875 -11.515625 C 8.945312 -10.816406 9.398438 -10.46875 9.828125 -10.46875 C 10.046875 -10.46875 10.234375 -10.535156 10.390625 -10.671875 C 10.546875 -10.804688 10.71875 -10.953125 10.90625 -11.109375 L 11.03125 -11.234375 C 11.269531 -11.472656 11.535156 -11.660156 11.828125 -11.796875 C 11.960938 -11.847656 12.085938 -11.890625 12.203125 -11.921875 C 12.328125 -11.960938 12.441406 -11.984375 12.546875 -11.984375 C 12.734375 -11.984375 12.921875 -11.921875 13.109375 -11.796875 C 13.316406 -11.609375 13.414062 -11.421875 13.40625 -11.234375 C 13.394531 -11.046875 13.335938 -10.84375 13.234375 -10.625 C 12.773438 -9.644531 12.316406 -8.679688 11.859375 -7.734375 C 11.410156 -6.785156 10.960938 -5.847656 10.515625 -4.921875 L 9.796875 -3.390625 C 9.628906 -3.097656 9.484375 -2.789062 9.359375 -2.46875 C 9.242188 -2.15625 9.132812 -1.851562 9.03125 -1.5625 L 8.828125 -0.953125 C 8.722656 -0.691406 8.710938 -0.492188 8.796875 -0.359375 C 8.847656 -0.273438 8.925781 -0.207031 9.03125 -0.15625 C 9.113281 -0.132812 9.207031 -0.125 9.3125 -0.125 C 9.582031 -0.125 9.890625 -0.203125 10.234375 -0.359375 C 10.578125 -0.515625 10.816406 -0.632812 10.953125 -0.71875 C 11.804688 -1.300781 12.644531 -1.890625 13.46875 -2.484375 C 14.289062 -3.085938 15.09375 -3.6875 15.875 -4.28125 C 16.132812 -4.46875 16.382812 -4.660156 16.625 -4.859375 C 16.863281 -5.054688 17.117188 -5.25 17.390625 -5.4375 C 17.546875 -5.570312 17.707031 -5.710938 17.875 -5.859375 C 18.050781 -6.003906 18.234375 -6.144531 18.421875 -6.28125 C 18.503906 -6.351562 18.582031 -6.421875 18.65625 -6.484375 C 18.738281 -6.554688 18.832031 -6.617188 18.9375 -6.671875 C 19.070312 -6.804688 19.21875 -6.929688 19.375 -7.046875 C 19.539062 -7.171875 19.703125 -7.300781 19.859375 -7.4375 L 20.03125 -7.515625 C 20.101562 -7.566406 20.1875 -7.625 20.28125 -7.6875 C 20.375 -7.757812 20.460938 -7.796875 20.546875 -7.796875 Z M 8.875 -9.3125 C 9.132812 -9.601562 9.117188 -9.953125 8.828125 -10.359375 C 8.484375 -10.804688 8.070312 -11.03125 7.59375 -11.03125 C 7.539062 -11.03125 7.488281 -11.03125 7.4375 -11.03125 C 6.769531 -10.894531 6.179688 -10.679688 5.671875 -10.390625 C 4.503906 -9.703125 3.5625 -8.835938 2.84375 -7.796875 C 2.125 -6.753906 1.492188 -5.726562 0.953125 -4.71875 C 0.898438 -4.613281 0.835938 -4.503906 0.765625 -4.390625 C 0.703125 -4.285156 0.644531 -4.179688 0.59375 -4.078125 C 0.4375 -3.835938 0.289062 -3.582031 0.15625 -3.3125 C 0.0195312 -3.050781 -0.0820312 -2.757812 -0.15625 -2.4375 C -0.1875 -2.300781 -0.203125 -2.0625 -0.203125 -1.71875 C -0.203125 -1.375 -0.109375 -1.117188 0.078125 -0.953125 C 0.160156 -0.847656 0.269531 -0.796875 0.40625 -0.796875 C 0.507812 -0.796875 0.640625 -0.835938 0.796875 -0.921875 C 1.941406 -1.640625 2.960938 -2.488281 3.859375 -3.46875 C 4.753906 -4.457031 5.613281 -5.457031 6.4375 -6.46875 C 6.832031 -6.945312 7.226562 -7.425781 7.625 -7.90625 C 8.03125 -8.394531 8.445312 -8.863281 8.875 -9.3125 Z M 8.875 -9.3125 "/></g></g></g><g fill="#000000" fill-opacity="1"><g transform="translate(266.63181, 85.499997)"><g><path d="M 23.0625 -19.625 C 23.144531 -19.539062 23.195312 -19.421875 23.21875 -19.265625 C 23.21875 -19.179688 23.195312 -19.101562 23.15625 -19.03125 C 23.125 -18.96875 23.015625 -18.9375 22.828125 -18.9375 C 22.742188 -18.9375 22.65625 -18.941406 22.5625 -18.953125 C 22.46875 -18.972656 22.378906 -18.984375 22.296875 -18.984375 L 22.109375 -19.03125 C 20.640625 -19.21875 19.191406 -19.335938 17.765625 -19.390625 C 16.335938 -19.441406 14.957031 -19.46875 13.625 -19.46875 L 11.59375 -19.421875 C 11.25 -19.421875 10.894531 -19.425781 10.53125 -19.4375 C 10.164062 -19.457031 9.8125 -19.46875 9.46875 -19.46875 C 9.039062 -19.46875 8.679688 -19.410156 8.390625 -19.296875 C 8.097656 -19.191406 7.875 -18.96875 7.71875 -18.625 L 7 -17.265625 C 5.257812 -13.910156 3.5625 -10.457031 1.90625 -6.90625 C 0.257812 -3.363281 -1.050781 0.347656 -2.03125 4.234375 C -2.8125 7.273438 -3.175781 10.0625 -3.125 12.59375 C -3.125 12.695312 -3.125 12.800781 -3.125 12.90625 C -3.125 13.144531 -3.113281 13.367188 -3.09375 13.578125 C -3.082031 13.796875 -3 14 -2.84375 14.1875 C -2.601562 14.425781 -2.242188 14.570312 -1.765625 14.625 C -1.648438 14.625 -1.566406 14.664062 -1.515625 14.75 C -1.410156 14.851562 -1.34375 14.984375 -1.3125 15.140625 C -1.289062 15.328125 -1.332031 15.453125 -1.4375 15.515625 C -1.539062 15.585938 -1.648438 15.625 -1.765625 15.625 L -1.796875 15.625 C -2.972656 15.625 -3.71875 15.066406 -4.03125 13.953125 C -4.21875 13.359375 -4.304688 12.789062 -4.296875 12.25 C -4.285156 11.707031 -4.253906 11.164062 -4.203125 10.625 L -4.15625 10.3125 C -3.945312 7.914062 -3.546875 5.597656 -2.953125 3.359375 C -2.367188 1.117188 -1.671875 -1.050781 -0.859375 -3.15625 C -0.046875 -5.257812 0.769531 -7.335938 1.59375 -9.390625 L 1.84375 -9.90625 C 2.238281 -10.925781 2.675781 -11.921875 3.15625 -12.890625 C 3.632812 -13.859375 4.101562 -14.820312 4.5625 -15.78125 C 4.800781 -16.238281 5.03125 -16.691406 5.25 -17.140625 C 5.476562 -17.597656 5.703125 -18.050781 5.921875 -18.5 C 5.972656 -18.632812 6.003906 -18.785156 6.015625 -18.953125 C 6.023438 -19.128906 5.925781 -19.40625 5.71875 -19.78125 L 5.640625 -19.859375 L 5.5625 -19.859375 C 4.96875 -19.859375 4.363281 -19.859375 3.75 -19.859375 C 3.144531 -19.859375 2.535156 -19.859375 1.921875 -19.859375 C 1.304688 -19.890625 0.6875 -19.90625 0.0625 -19.90625 C -0.5625 -19.90625 -1.195312 -19.90625 -1.84375 -19.90625 C -3.8125 -19.90625 -5.554688 -19.878906 -7.078125 -19.828125 C -7.390625 -19.796875 -7.707031 -19.78125 -8.03125 -19.78125 C -8.351562 -19.78125 -8.675781 -19.78125 -9 -19.78125 C -9.820312 -19.757812 -10.648438 -19.726562 -11.484375 -19.6875 C -12.328125 -19.644531 -13.132812 -19.53125 -13.90625 -19.34375 C -14.144531 -19.289062 -14.347656 -19.265625 -14.515625 -19.265625 C -14.691406 -19.265625 -14.847656 -19.304688 -14.984375 -19.390625 C -15.066406 -19.460938 -15.132812 -19.59375 -15.1875 -19.78125 C -15.238281 -20.019531 -15.117188 -20.140625 -14.828125 -20.140625 C -14.773438 -20.140625 -14.664062 -20.132812 -14.5 -20.125 C -14.34375 -20.113281 -14.265625 -20.109375 -14.265625 -20.109375 L -14.15625 -20.109375 C -12.65625 -20.234375 -11.175781 -20.316406 -9.71875 -20.359375 C -8.269531 -20.398438 -6.972656 -20.421875 -5.828125 -20.421875 C -5.222656 -20.421875 -4.601562 -20.421875 -3.96875 -20.421875 C -3.34375 -20.421875 -2.726562 -20.421875 -2.125 -20.421875 C -1.507812 -20.398438 -0.890625 -20.390625 -0.265625 -20.390625 C 0.359375 -20.390625 0.976562 -20.390625 1.59375 -20.390625 C 2.1875 -20.390625 2.773438 -20.390625 3.359375 -20.390625 C 3.941406 -20.390625 4.523438 -20.398438 5.109375 -20.421875 C 5.671875 -20.453125 6.171875 -20.550781 6.609375 -20.71875 C 7.054688 -20.894531 7.410156 -21.25 7.671875 -21.78125 C 8.796875 -24.125 10.34375 -26.363281 12.3125 -28.5 C 12.332031 -28.550781 12.382812 -28.617188 12.46875 -28.703125 C 12.550781 -28.804688 12.640625 -28.910156 12.734375 -29.015625 C 12.828125 -29.117188 12.9375 -29.171875 13.0625 -29.171875 C 13.195312 -29.171875 13.359375 -29.09375 13.546875 -28.9375 C 13.785156 -28.726562 13.878906 -28.515625 13.828125 -28.296875 C 13.773438 -28.085938 13.671875 -27.863281 13.515625 -27.625 C 13.296875 -27.320312 13.09375 -27.035156 12.90625 -26.765625 C 12.71875 -26.503906 12.53125 -26.253906 12.34375 -26.015625 C 11.757812 -25.222656 11.175781 -24.390625 10.59375 -23.515625 C 10.007812 -22.648438 9.460938 -21.695312 8.953125 -20.65625 L 8.828125 -20.46875 L 12.390625 -20.46875 C 15.210938 -20.46875 18.410156 -20.253906 21.984375 -19.828125 C 22.035156 -19.828125 22.128906 -19.828125 22.265625 -19.828125 C 22.398438 -19.828125 22.539062 -19.8125 22.6875 -19.78125 C 22.832031 -19.757812 22.957031 -19.707031 23.0625 -19.625 Z M 23.0625 -19.625 "/></g></g></g><g fill="#000000" fill-opacity="1"><g transform="translate(273.507099, 85.499997)"><g><path d="M 13.671875 -5.921875 C 13.859375 -6.023438 14.070312 -6.078125 14.3125 -6.078125 C 14.332031 -5.941406 14.273438 -5.8125 14.140625 -5.6875 C 14.015625 -5.570312 13.898438 -5.460938 13.796875 -5.359375 L 13.546875 -5.15625 C 12.585938 -4.4375 11.613281 -3.734375 10.625 -3.046875 C 9.644531 -2.367188 8.585938 -1.8125 7.453125 -1.375 C 6.316406 -0.9375 5.054688 -0.71875 3.671875 -0.71875 L 3.515625 -0.71875 C 2.160156 -0.71875 1.109375 -1.128906 0.359375 -1.953125 C -0.304688 -2.734375 -0.53125 -3.664062 -0.3125 -4.75 C 0.425781 -8.40625 2.796875 -10.765625 6.796875 -11.828125 C 7.003906 -11.878906 7.21875 -11.90625 7.4375 -11.90625 C 8.070312 -11.90625 8.59375 -11.628906 9 -11.078125 C 9.3125 -10.648438 9.40625 -10.28125 9.28125 -9.96875 C 9.164062 -9.664062 8.988281 -9.351562 8.75 -9.03125 C 7.6875 -7.726562 5.929688 -6.890625 3.484375 -6.515625 C 2.597656 -6.378906 2.019531 -6.03125 1.75 -5.46875 C 1.488281 -4.914062 1.289062 -4.316406 1.15625 -3.671875 L 1.125 -3.390625 C 1.039062 -3.023438 1.101562 -2.679688 1.3125 -2.359375 C 1.613281 -1.960938 2.082031 -1.671875 2.71875 -1.484375 C 3.195312 -1.347656 3.703125 -1.28125 4.234375 -1.28125 C 4.660156 -1.28125 5.070312 -1.316406 5.46875 -1.390625 C 5.875 -1.472656 6.300781 -1.582031 6.75 -1.71875 C 8.164062 -2.113281 9.578125 -2.789062 10.984375 -3.75 C 11.597656 -4.15625 12.210938 -4.640625 12.828125 -5.203125 C 12.878906 -5.222656 12.929688 -5.257812 12.984375 -5.3125 C 13.035156 -5.363281 13.09375 -5.414062 13.15625 -5.46875 C 13.226562 -5.550781 13.304688 -5.625 13.390625 -5.6875 C 13.472656 -5.757812 13.566406 -5.835938 13.671875 -5.921875 Z M 3.953125 -7.953125 L 3.671875 -7.640625 L 4.109375 -7.75 C 5.046875 -7.96875 5.835938 -8.25 6.484375 -8.59375 C 7.140625 -8.9375 7.707031 -9.492188 8.1875 -10.265625 L 8.359375 -10.59375 L 8 -10.46875 C 7.21875 -10.226562 6.492188 -9.925781 5.828125 -9.5625 C 5.171875 -9.207031 4.546875 -8.671875 3.953125 -7.953125 Z M 3.953125 -7.953125 "/></g></g></g><g fill="#000000" fill-opacity="1"><g transform="translate(287.137756, 85.499997)"><g/></g></g><g fill="#000000" fill-opacity="1"><g transform="translate(299.129539, 85.499997)"><g><path d="M 22.140625 -6.59375 C 22.242188 -6.570312 22.363281 -6.550781 22.5 -6.53125 C 22.632812 -6.519531 22.769531 -6.5 22.90625 -6.46875 C 22.71875 -6.414062 22.515625 -6.375 22.296875 -6.34375 C 22.085938 -6.320312 21.863281 -6.3125 21.625 -6.3125 C 21.519531 -6.3125 21.398438 -6.3125 21.265625 -6.3125 C 20.566406 -6.394531 19.882812 -6.625 19.21875 -7 C 18.71875 -7.289062 18.210938 -7.648438 17.703125 -8.078125 C 17.460938 -8.285156 17.222656 -8.523438 16.984375 -8.796875 C 16.691406 -9.085938 16.503906 -9.285156 16.421875 -9.390625 C 16.347656 -9.492188 16.3125 -9.546875 16.3125 -9.546875 L 16.0625 -9.625 L 15.515625 -8.515625 C 14.921875 -7.265625 14.285156 -6.023438 13.609375 -4.796875 C 12.929688 -3.566406 12.085938 -2.472656 11.078125 -1.515625 C 10.535156 -1.035156 9.945312 -0.609375 9.3125 -0.234375 C 9.039062 -0.078125 8.773438 0 8.515625 0 C 8.171875 0 7.835938 -0.101562 7.515625 -0.3125 C 6.847656 -0.769531 6.515625 -1.382812 6.515625 -2.15625 C 6.515625 -2.445312 6.523438 -2.742188 6.546875 -3.046875 C 6.578125 -3.359375 6.609375 -3.6875 6.640625 -4.03125 C 6.660156 -4.195312 6.691406 -4.476562 6.734375 -4.875 C 6.773438 -5.269531 6.796875 -5.46875 6.796875 -5.46875 L 6.515625 -5.203125 C 6.242188 -4.960938 6 -4.707031 5.78125 -4.4375 C 5.570312 -4.164062 5.363281 -3.910156 5.15625 -3.671875 C 4.832031 -3.304688 4.515625 -2.945312 4.203125 -2.59375 C 3.898438 -2.25 3.566406 -1.941406 3.203125 -1.671875 L 3 -1.5625 C 2.84375 -1.425781 2.675781 -1.3125 2.5 -1.21875 C 2.320312 -1.125 2.128906 -1.078125 1.921875 -1.078125 C 1.679688 -1.078125 1.414062 -1.171875 1.125 -1.359375 C 0.664062 -1.628906 0.375 -1.960938 0.25 -2.359375 C 0.132812 -2.753906 0.078125 -3.140625 0.078125 -3.515625 C 0.109375 -6.367188 0.921875 -9.140625 2.515625 -11.828125 C 2.679688 -12.097656 2.882812 -12.234375 3.125 -12.234375 C 3.25 -12.234375 3.394531 -12.179688 3.5625 -12.078125 C 3.769531 -11.960938 3.878906 -11.832031 3.890625 -11.6875 C 3.910156 -11.539062 3.878906 -11.375 3.796875 -11.1875 L 3.75 -11.03125 C 3.570312 -10.414062 3.390625 -9.796875 3.203125 -9.171875 C 3.015625 -8.546875 2.828125 -7.914062 2.640625 -7.28125 L 2.078125 -5.390625 C 1.992188 -5.128906 1.921875 -4.867188 1.859375 -4.609375 C 1.796875 -4.359375 1.75 -4.101562 1.71875 -3.84375 C 1.613281 -3.09375 1.640625 -2.609375 1.796875 -2.390625 C 1.847656 -2.316406 1.914062 -2.265625 2 -2.234375 C 2.019531 -2.210938 2.046875 -2.203125 2.078125 -2.203125 C 2.179688 -2.203125 2.300781 -2.238281 2.4375 -2.3125 C 2.65625 -2.425781 2.863281 -2.554688 3.0625 -2.703125 C 3.257812 -2.847656 3.453125 -2.988281 3.640625 -3.125 L 3.953125 -3.390625 C 4.546875 -3.867188 5.117188 -4.441406 5.671875 -5.109375 C 5.910156 -5.410156 6.164062 -5.734375 6.4375 -6.078125 C 6.625 -6.316406 6.800781 -6.5625 6.96875 -6.8125 C 7.144531 -7.0625 7.3125 -7.304688 7.46875 -7.546875 C 7.582031 -7.734375 7.695312 -7.914062 7.8125 -8.09375 C 7.9375 -8.269531 8.0625 -8.4375 8.1875 -8.59375 L 8.28125 -8.71875 C 8.332031 -8.789062 8.390625 -8.867188 8.453125 -8.953125 C 8.515625 -9.035156 8.601562 -9.078125 8.71875 -9.078125 C 8.789062 -9.078125 8.894531 -9.019531 9.03125 -8.90625 C 9.269531 -8.78125 9.398438 -8.632812 9.421875 -8.46875 C 9.453125 -8.3125 9.441406 -8.113281 9.390625 -7.875 L 8.59375 -4.71875 C 8.507812 -4.34375 8.421875 -3.96875 8.328125 -3.59375 C 8.234375 -3.21875 8.160156 -2.832031 8.109375 -2.4375 L 8.109375 -2.3125 C 8.085938 -2.15625 8.066406 -1.992188 8.046875 -1.828125 C 8.035156 -1.671875 8.082031 -1.53125 8.1875 -1.40625 C 8.269531 -1.320312 8.390625 -1.28125 8.546875 -1.28125 C 8.628906 -1.28125 8.710938 -1.289062 8.796875 -1.3125 C 9.515625 -1.5 10.207031 -1.898438 10.875 -2.515625 C 11.1875 -2.804688 11.488281 -3.113281 11.78125 -3.4375 C 12.082031 -3.757812 12.351562 -4.09375 12.59375 -4.4375 C 13.09375 -5.070312 13.546875 -5.738281 13.953125 -6.4375 C 14.722656 -7.789062 15.320312 -9.269531 15.75 -10.875 C 15.75 -10.945312 15.757812 -11.050781 15.78125 -11.1875 C 15.84375 -11.613281 15.976562 -11.828125 16.1875 -11.828125 C 16.457031 -11.773438 16.625 -11.679688 16.6875 -11.546875 C 16.75 -11.410156 16.804688 -11.238281 16.859375 -11.03125 C 16.890625 -10.84375 16.921875 -10.722656 16.953125 -10.671875 C 17.078125 -10.160156 17.304688 -9.59375 17.640625 -8.96875 C 17.972656 -8.34375 18.472656 -7.832031 19.140625 -7.4375 C 19.671875 -7.144531 20.300781 -6.914062 21.03125 -6.75 C 21.207031 -6.726562 21.390625 -6.703125 21.578125 -6.671875 C 21.765625 -6.648438 21.953125 -6.625 22.140625 -6.59375 Z M 22.140625 -6.59375 "/></g></g></g><g fill="#000000" fill-opacity="1"><g transform="translate(320.59482, 85.499997)"><g><path d="M 13.90625 -6.359375 C 13.988281 -6.304688 14.03125 -6.1875 14.03125 -6 C 14.03125 -5.8125 13.914062 -5.632812 13.6875 -5.46875 C 13.457031 -5.3125 13.28125 -5.179688 13.15625 -5.078125 C 12.695312 -4.671875 12.226562 -4.28125 11.75 -3.90625 C 11.269531 -3.539062 10.789062 -3.1875 10.3125 -2.84375 C 9.300781 -2.125 8.226562 -1.484375 7.09375 -0.921875 C 5.957031 -0.359375 4.753906 0.09375 3.484375 0.4375 C 2.941406 0.570312 2.378906 0.640625 1.796875 0.640625 C 1.210938 0.640625 0.628906 0.375 0.046875 -0.15625 C -0.546875 -0.664062 -0.875 -1.207031 -0.9375 -1.78125 C -1.007812 -2.351562 -0.960938 -2.90625 -0.796875 -3.4375 C -0.316406 -5.25 0.359375 -6.941406 1.234375 -8.515625 C 2.117188 -10.085938 3.171875 -11.539062 4.390625 -12.875 C 4.523438 -13.0625 4.691406 -13.234375 4.890625 -13.390625 C 5.097656 -13.546875 5.375 -13.492188 5.71875 -13.234375 C 6.09375 -12.941406 6.210938 -12.679688 6.078125 -12.453125 C 5.941406 -12.222656 5.820312 -12.015625 5.71875 -11.828125 C 4.863281 -10.472656 4.035156 -9.113281 3.234375 -7.75 C 2.429688 -6.394531 1.726562 -4.972656 1.125 -3.484375 C 1.007812 -3.210938 0.875 -2.929688 0.71875 -2.640625 C 0.5625 -2.347656 0.484375 -2.046875 0.484375 -1.734375 C 0.484375 -1.429688 0.628906 -1.132812 0.921875 -0.84375 C 1.398438 -0.332031 1.929688 -0.113281 2.515625 -0.1875 C 3.097656 -0.269531 3.628906 -0.367188 4.109375 -0.484375 C 5.148438 -0.722656 6.109375 -1.082031 6.984375 -1.5625 C 7.867188 -2.039062 8.710938 -2.570312 9.515625 -3.15625 C 9.617188 -3.238281 9.882812 -3.460938 10.3125 -3.828125 C 10.738281 -4.203125 11.203125 -4.601562 11.703125 -5.03125 C 12.210938 -5.457031 12.679688 -5.800781 13.109375 -6.0625 C 13.535156 -6.332031 13.800781 -6.429688 13.90625 -6.359375 Z M 7.46875 -15.109375 C 6.863281 -15.054688 6.476562 -15.335938 6.3125 -15.953125 C 6.175781 -16.484375 6.226562 -16.859375 6.46875 -17.078125 C 6.707031 -17.304688 7.054688 -17.4375 7.515625 -17.46875 C 7.835938 -17.488281 8.117188 -17.421875 8.359375 -17.265625 C 8.597656 -17.109375 8.769531 -16.828125 8.875 -16.421875 C 8.894531 -15.972656 8.769531 -15.65625 8.5 -15.46875 C 8.238281 -15.28125 7.894531 -15.160156 7.46875 -15.109375 Z M 7.46875 -15.109375 "/></g></g></g><g fill="#000000" fill-opacity="1"><g transform="translate(333.785783, 85.499997)"><g><path d="M 23.0625 -19.625 C 23.144531 -19.539062 23.195312 -19.421875 23.21875 -19.265625 C 23.21875 -19.179688 23.195312 -19.101562 23.15625 -19.03125 C 23.125 -18.96875 23.015625 -18.9375 22.828125 -18.9375 C 22.742188 -18.9375 22.65625 -18.941406 22.5625 -18.953125 C 22.46875 -18.972656 22.378906 -18.984375 22.296875 -18.984375 L 22.109375 -19.03125 C 20.640625 -19.21875 19.191406 -19.335938 17.765625 -19.390625 C 16.335938 -19.441406 14.957031 -19.46875 13.625 -19.46875 L 11.59375 -19.421875 C 11.25 -19.421875 10.894531 -19.425781 10.53125 -19.4375 C 10.164062 -19.457031 9.8125 -19.46875 9.46875 -19.46875 C 9.039062 -19.46875 8.679688 -19.410156 8.390625 -19.296875 C 8.097656 -19.191406 7.875 -18.96875 7.71875 -18.625 L 7 -17.265625 C 5.257812 -13.910156 3.5625 -10.457031 1.90625 -6.90625 C 0.257812 -3.363281 -1.050781 0.347656 -2.03125 4.234375 C -2.8125 7.273438 -3.175781 10.0625 -3.125 12.59375 C -3.125 12.695312 -3.125 12.800781 -3.125 12.90625 C -3.125 13.144531 -3.113281 13.367188 -3.09375 13.578125 C -3.082031 13.796875 -3 14 -2.84375 14.1875 C -2.601562 14.425781 -2.242188 14.570312 -1.765625 14.625 C -1.648438 14.625 -1.566406 14.664062 -1.515625 14.75 C -1.410156 14.851562 -1.34375 14.984375 -1.3125 15.140625 C -1.289062 15.328125 -1.332031 15.453125 -1.4375 15.515625 C -1.539062 15.585938 -1.648438 15.625 -1.765625 15.625 L -1.796875 15.625 C -2.972656 15.625 -3.71875 15.066406 -4.03125 13.953125 C -4.21875 13.359375 -4.304688 12.789062 -4.296875 12.25 C -4.285156 11.707031 -4.253906 11.164062 -4.203125 10.625 L -4.15625 10.3125 C -3.945312 7.914062 -3.546875 5.597656 -2.953125 3.359375 C -2.367188 1.117188 -1.671875 -1.050781 -0.859375 -3.15625 C -0.046875 -5.257812 0.769531 -7.335938 1.59375 -9.390625 L 1.84375 -9.90625 C 2.238281 -10.925781 2.675781 -11.921875 3.15625 -12.890625 C 3.632812 -13.859375 4.101562 -14.820312 4.5625 -15.78125 C 4.800781 -16.238281 5.03125 -16.691406 5.25 -17.140625 C 5.476562 -17.597656 5.703125 -18.050781 5.921875 -18.5 C 5.972656 -18.632812 6.003906 -18.785156 6.015625 -18.953125 C 6.023438 -19.128906 5.925781 -19.40625 5.71875 -19.78125 L 5.640625 -19.859375 L 5.5625 -19.859375 C 4.96875 -19.859375 4.363281 -19.859375 3.75 -19.859375 C 3.144531 -19.859375 2.535156 -19.859375 1.921875 -19.859375 C 1.304688 -19.890625 0.6875 -19.90625 0.0625 -19.90625 C -0.5625 -19.90625 -1.195312 -19.90625 -1.84375 -19.90625 C -3.8125 -19.90625 -5.554688 -19.878906 -7.078125 -19.828125 C -7.390625 -19.796875 -7.707031 -19.78125 -8.03125 -19.78125 C -8.351562 -19.78125 -8.675781 -19.78125 -9 -19.78125 C -9.820312 -19.757812 -10.648438 -19.726562 -11.484375 -19.6875 C -12.328125 -19.644531 -13.132812 -19.53125 -13.90625 -19.34375 C -14.144531 -19.289062 -14.347656 -19.265625 -14.515625 -19.265625 C -14.691406 -19.265625 -14.847656 -19.304688 -14.984375 -19.390625 C -15.066406 -19.460938 -15.132812 -19.59375 -15.1875 -19.78125 C -15.238281 -20.019531 -15.117188 -20.140625 -14.828125 -20.140625 C -14.773438 -20.140625 -14.664062 -20.132812 -14.5 -20.125 C -14.34375 -20.113281 -14.265625 -20.109375 -14.265625 -20.109375 L -14.15625 -20.109375 C -12.65625 -20.234375 -11.175781 -20.316406 -9.71875 -20.359375 C -8.269531 -20.398438 -6.972656 -20.421875 -5.828125 -20.421875 C -5.222656 -20.421875 -4.601562 -20.421875 -3.96875 -20.421875 C -3.34375 -20.421875 -2.726562 -20.421875 -2.125 -20.421875 C -1.507812 -20.398438 -0.890625 -20.390625 -0.265625 -20.390625 C 0.359375 -20.390625 0.976562 -20.390625 1.59375 -20.390625 C 2.1875 -20.390625 2.773438 -20.390625 3.359375 -20.390625 C 3.941406 -20.390625 4.523438 -20.398438 5.109375 -20.421875 C 5.671875 -20.453125 6.171875 -20.550781 6.609375 -20.71875 C 7.054688 -20.894531 7.410156 -21.25 7.671875 -21.78125 C 8.796875 -24.125 10.34375 -26.363281 12.3125 -28.5 C 12.332031 -28.550781 12.382812 -28.617188 12.46875 -28.703125 C 12.550781 -28.804688 12.640625 -28.910156 12.734375 -29.015625 C 12.828125 -29.117188 12.9375 -29.171875 13.0625 -29.171875 C 13.195312 -29.171875 13.359375 -29.09375 13.546875 -28.9375 C 13.785156 -28.726562 13.878906 -28.515625 13.828125 -28.296875 C 13.773438 -28.085938 13.671875 -27.863281 13.515625 -27.625 C 13.296875 -27.320312 13.09375 -27.035156 12.90625 -26.765625 C 12.71875 -26.503906 12.53125 -26.253906 12.34375 -26.015625 C 11.757812 -25.222656 11.175781 -24.390625 10.59375 -23.515625 C 10.007812 -22.648438 9.460938 -21.695312 8.953125 -20.65625 L 8.828125 -20.46875 L 12.390625 -20.46875 C 15.210938 -20.46875 18.410156 -20.253906 21.984375 -19.828125 C 22.035156 -19.828125 22.128906 -19.828125 22.265625 -19.828125 C 22.398438 -19.828125 22.539062 -19.8125 22.6875 -19.78125 C 22.832031 -19.757812 22.957031 -19.707031 23.0625 -19.625 Z M 23.0625 -19.625 "/></g></g></g><g fill="#000000" fill-opacity="1"><g transform="translate(340.661073, 85.499997)"><g><path d="M 24.453125 -6.109375 C 24.640625 -5.742188 24.5625 -5.316406 24.21875 -4.828125 C 23.875 -4.347656 23.566406 -3.953125 23.296875 -3.640625 C 23.140625 -3.472656 23.035156 -3.351562 22.984375 -3.28125 C 20.265625 0.207031 17.265625 2.523438 13.984375 3.671875 C 13.742188 3.753906 13.488281 3.832031 13.21875 3.90625 C 12.957031 3.988281 12.679688 4.03125 12.390625 4.03125 C 11.804688 4.03125 11.257812 3.816406 10.75 3.390625 C 10.21875 2.972656 9.90625 2.488281 9.8125 1.9375 C 9.71875 1.394531 9.671875 0.816406 9.671875 0.203125 C 9.703125 -1.078125 9.9375 -2.253906 10.375 -3.328125 C 10.8125 -4.410156 11.285156 -5.472656 11.796875 -6.515625 L 12.109375 -7.1875 C 12.191406 -7.320312 12.269531 -7.519531 12.34375 -7.78125 C 12.425781 -8.050781 12.375 -8.269531 12.1875 -8.4375 C 12.050781 -8.539062 11.890625 -8.59375 11.703125 -8.59375 C 11.304688 -8.59375 10.832031 -8.382812 10.28125 -7.96875 C 9.738281 -7.5625 9.253906 -7.15625 8.828125 -6.75 L 8.75 -6.671875 C 8.4375 -6.410156 8.140625 -6.125 7.859375 -5.8125 C 7.578125 -5.507812 7.300781 -5.210938 7.03125 -4.921875 C 6.875 -4.753906 6.707031 -4.582031 6.53125 -4.40625 C 6.363281 -4.238281 6.195312 -4.0625 6.03125 -3.875 L 5.203125 -3.03125 C 4.691406 -2.53125 4.179688 -2.019531 3.671875 -1.5 C 3.171875 -0.976562 2.65625 -0.460938 2.125 0.046875 C 1.957031 0.203125 1.78125 0.335938 1.59375 0.453125 C 1.40625 0.578125 1.191406 0.640625 0.953125 0.640625 C 0.710938 0.640625 0.472656 0.5625 0.234375 0.40625 C -0.160156 0.164062 -0.382812 -0.117188 -0.4375 -0.453125 C -0.488281 -0.785156 -0.503906 -1.140625 -0.484375 -1.515625 C -0.398438 -3.140625 -0.0976562 -4.6875 0.421875 -6.15625 C 0.941406 -7.625 1.476562 -9.0625 2.03125 -10.46875 C 2.25 -10.945312 2.644531 -11.734375 3.21875 -12.828125 C 3.789062 -13.921875 4.46875 -15.179688 5.25 -16.609375 C 6.039062 -18.035156 6.875 -19.519531 7.75 -21.0625 C 8.632812 -22.601562 9.484375 -24.082031 10.296875 -25.5 C 11.109375 -26.914062 11.8125 -28.15625 12.40625 -29.21875 C 13.007812 -30.28125 13.441406 -31.050781 13.703125 -31.53125 C 14.109375 -32.226562 14.523438 -32.914062 14.953125 -33.59375 C 15.378906 -34.269531 15.832031 -34.929688 16.3125 -35.578125 C 16.46875 -35.785156 16.691406 -36.101562 16.984375 -36.53125 C 17.273438 -36.957031 17.597656 -37.34375 17.953125 -37.6875 C 18.316406 -38.03125 18.675781 -38.175781 19.03125 -38.125 C 19.394531 -38.101562 19.570312 -37.9375 19.5625 -37.625 C 19.550781 -37.320312 19.46875 -36.984375 19.3125 -36.609375 C 19.09375 -36.160156 18.835938 -35.722656 18.546875 -35.296875 C 18.253906 -34.867188 18.066406 -34.601562 17.984375 -34.5 C 17.421875 -33.769531 16.710938 -32.71875 15.859375 -31.34375 C 15.015625 -29.976562 14.082031 -28.414062 13.0625 -26.65625 C 12.050781 -24.894531 11.019531 -23.066406 9.96875 -21.171875 C 8.914062 -19.285156 7.921875 -17.441406 6.984375 -15.640625 C 6.054688 -13.847656 5.238281 -12.21875 4.53125 -10.75 C 3.832031 -9.28125 3.332031 -8.109375 3.03125 -7.234375 C 2.71875 -6.328125 2.359375 -5.421875 1.953125 -4.515625 C 1.554688 -3.609375 1.265625 -2.675781 1.078125 -1.71875 C 1.023438 -1.375 1.066406 -1.132812 1.203125 -1 C 1.273438 -0.914062 1.378906 -0.875 1.515625 -0.875 C 1.648438 -0.875 1.820312 -0.914062 2.03125 -1 C 2.351562 -1.15625 2.632812 -1.351562 2.875 -1.59375 C 3.113281 -1.832031 3.34375 -2.085938 3.5625 -2.359375 C 3.632812 -2.460938 3.71875 -2.566406 3.8125 -2.671875 C 3.90625 -2.785156 4.003906 -2.894531 4.109375 -3 C 4.296875 -3.1875 4.484375 -3.378906 4.671875 -3.578125 C 4.859375 -3.773438 5.046875 -3.984375 5.234375 -4.203125 C 5.453125 -4.410156 5.671875 -4.632812 5.890625 -4.875 C 6.117188 -5.113281 6.34375 -5.34375 6.5625 -5.5625 L 6.671875 -5.671875 C 7.367188 -6.367188 8.085938 -7.054688 8.828125 -7.734375 C 9.578125 -8.410156 10.378906 -9.015625 11.234375 -9.546875 C 11.390625 -9.660156 11.566406 -9.773438 11.765625 -9.890625 C 11.972656 -10.015625 12.195312 -10.078125 12.4375 -10.078125 C 12.695312 -10.078125 12.945312 -9.984375 13.1875 -9.796875 C 13.851562 -9.316406 14.023438 -8.597656 13.703125 -7.640625 C 13.460938 -6.835938 13.207031 -6.054688 12.9375 -5.296875 C 12.675781 -4.535156 12.414062 -3.796875 12.15625 -3.078125 L 11.953125 -2.515625 C 11.734375 -1.929688 11.523438 -1.332031 11.328125 -0.71875 C 11.128906 -0.101562 10.988281 0.535156 10.90625 1.203125 C 10.851562 1.941406 10.988281 2.488281 11.3125 2.84375 C 11.632812 3.15625 12.097656 3.3125 12.703125 3.3125 C 12.835938 3.3125 12.988281 3.3125 13.15625 3.3125 C 13.84375 3.238281 14.472656 3.070312 15.046875 2.8125 C 15.617188 2.5625 16.132812 2.289062 16.59375 2 C 18.082031 1.0625 19.425781 -0.0820312 20.625 -1.4375 C 20.96875 -1.8125 21.285156 -2.210938 21.578125 -2.640625 C 21.867188 -3.066406 22.148438 -3.492188 22.421875 -3.921875 C 22.609375 -4.210938 22.796875 -4.503906 22.984375 -4.796875 C 23.171875 -5.085938 23.359375 -5.378906 23.546875 -5.671875 C 23.617188 -5.753906 23.726562 -5.859375 23.875 -5.984375 C 24.019531 -6.117188 24.160156 -6.1875 24.296875 -6.1875 C 24.347656 -6.1875 24.398438 -6.160156 24.453125 -6.109375 Z M 24.453125 -6.109375 "/></g></g></g><g fill="#000000" fill-opacity="1"><g transform="translate(364.324844, 85.499997)"><g/></g></g><g fill="#000000" fill-opacity="1"><g transform="translate(376.316649, 85.499997)"><g><path d="M 3.796875 6.078125 C 3.609375 6.078125 3.394531 6.035156 3.15625 5.953125 C 2.519531 5.691406 2.15625 5.316406 2.0625 4.828125 C 1.96875 4.347656 1.921875 3.84375 1.921875 3.3125 C 1.921875 3.238281 1.925781 3.160156 1.9375 3.078125 C 1.945312 2.992188 1.953125 2.914062 1.953125 2.84375 C 1.898438 -3.363281 2.019531 -9.5 2.3125 -15.5625 C 2.613281 -21.625 2.960938 -27.507812 3.359375 -33.21875 C 3.359375 -33.289062 3.359375 -33.410156 3.359375 -33.578125 C 3.359375 -33.867188 3.382812 -34.113281 3.4375 -34.3125 C 3.488281 -34.507812 3.609375 -34.609375 3.796875 -34.609375 C 3.878906 -34.609375 3.984375 -34.597656 4.109375 -34.578125 C 4.328125 -34.492188 4.476562 -34.398438 4.5625 -34.296875 C 4.664062 -34.160156 4.71875 -34.003906 4.71875 -33.828125 C 4.71875 -33.660156 4.703125 -33.484375 4.671875 -33.296875 C 4.648438 -33.054688 4.640625 -32.882812 4.640625 -32.78125 C 4.742188 -28.96875 4.734375 -25.164062 4.609375 -21.375 C 4.492188 -17.59375 4.359375 -13.863281 4.203125 -10.1875 C 4.140625 -8.800781 4.082031 -7.410156 4.03125 -6.015625 C 3.976562 -4.617188 3.925781 -3.210938 3.875 -1.796875 L 3.84375 -0.921875 C 3.8125 -0.390625 3.785156 0.140625 3.765625 0.671875 C 3.753906 1.210938 3.78125 1.75 3.84375 2.28125 C 3.863281 2.46875 3.914062 2.613281 4 2.71875 L 4.078125 2.765625 L 4.15625 2.765625 C 4.550781 2.679688 4.847656 2.4375 5.046875 2.03125 C 5.253906 1.632812 5.425781 1.265625 5.5625 0.921875 L 5.640625 0.640625 C 6.066406 -0.484375 6.460938 -1.46875 6.828125 -2.3125 C 7.523438 -3.8125 8.210938 -5.28125 8.890625 -6.71875 C 9.566406 -8.15625 10.253906 -9.59375 10.953125 -11.03125 C 11.617188 -12.363281 12.46875 -14.015625 13.5 -15.984375 C 14.539062 -17.953125 15.703125 -20.113281 16.984375 -22.46875 C 18.265625 -24.832031 19.617188 -27.242188 21.046875 -29.703125 C 22.472656 -32.171875 23.910156 -34.566406 25.359375 -36.890625 C 26.804688 -39.210938 28.207031 -41.320312 29.5625 -43.21875 C 30.925781 -45.125 32.179688 -46.691406 33.328125 -47.921875 C 33.972656 -48.585938 34.84375 -49.304688 35.9375 -50.078125 C 36.039062 -50.160156 36.171875 -50.203125 36.328125 -50.203125 C 36.429688 -50.203125 36.539062 -50.175781 36.65625 -50.125 C 36.78125 -50.070312 36.910156 -49.960938 37.046875 -49.796875 C 37.234375 -49.585938 37.285156 -49.421875 37.203125 -49.296875 C 37.128906 -49.179688 37 -49.054688 36.8125 -48.921875 C 34.914062 -47.566406 33.234375 -46.035156 31.765625 -44.328125 C 30.304688 -42.617188 28.960938 -40.816406 27.734375 -38.921875 C 26.515625 -37.035156 25.332031 -35.144531 24.1875 -33.25 L 23.734375 -32.453125 C 23.128906 -31.441406 22.375 -30.109375 21.46875 -28.453125 C 20.5625 -26.804688 19.570312 -24.96875 18.5 -22.9375 C 17.4375 -20.914062 16.351562 -18.820312 15.25 -16.65625 C 14.144531 -14.5 13.082031 -12.394531 12.0625 -10.34375 C 11.050781 -8.300781 10.140625 -6.429688 9.328125 -4.734375 C 8.515625 -3.046875 7.867188 -1.664062 7.390625 -0.59375 C 7.046875 0.195312 6.691406 0.984375 6.328125 1.765625 C 5.972656 2.554688 5.625 3.351562 5.28125 4.15625 C 5.226562 4.238281 5.1875 4.316406 5.15625 4.390625 C 5.125 4.472656 5.097656 4.554688 5.078125 4.640625 C 4.941406 5.015625 4.78125 5.347656 4.59375 5.640625 C 4.40625 5.929688 4.140625 6.078125 3.796875 6.078125 Z M 3.796875 6.078125 "/></g></g></g><g fill="#000000" fill-opacity="1"><g transform="translate(391.146475, 85.499997)"><g><path d="M 13.90625 -6.359375 C 13.988281 -6.304688 14.03125 -6.1875 14.03125 -6 C 14.03125 -5.8125 13.914062 -5.632812 13.6875 -5.46875 C 13.457031 -5.3125 13.28125 -5.179688 13.15625 -5.078125 C 12.695312 -4.671875 12.226562 -4.28125 11.75 -3.90625 C 11.269531 -3.539062 10.789062 -3.1875 10.3125 -2.84375 C 9.300781 -2.125 8.226562 -1.484375 7.09375 -0.921875 C 5.957031 -0.359375 4.753906 0.09375 3.484375 0.4375 C 2.941406 0.570312 2.378906 0.640625 1.796875 0.640625 C 1.210938 0.640625 0.628906 0.375 0.046875 -0.15625 C -0.546875 -0.664062 -0.875 -1.207031 -0.9375 -1.78125 C -1.007812 -2.351562 -0.960938 -2.90625 -0.796875 -3.4375 C -0.316406 -5.25 0.359375 -6.941406 1.234375 -8.515625 C 2.117188 -10.085938 3.171875 -11.539062 4.390625 -12.875 C 4.523438 -13.0625 4.691406 -13.234375 4.890625 -13.390625 C 5.097656 -13.546875 5.375 -13.492188 5.71875 -13.234375 C 6.09375 -12.941406 6.210938 -12.679688 6.078125 -12.453125 C 5.941406 -12.222656 5.820312 -12.015625 5.71875 -11.828125 C 4.863281 -10.472656 4.035156 -9.113281 3.234375 -7.75 C 2.429688 -6.394531 1.726562 -4.972656 1.125 -3.484375 C 1.007812 -3.210938 0.875 -2.929688 0.71875 -2.640625 C 0.5625 -2.347656 0.484375 -2.046875 0.484375 -1.734375 C 0.484375 -1.429688 0.628906 -1.132812 0.921875 -0.84375 C 1.398438 -0.332031 1.929688 -0.113281 2.515625 -0.1875 C 3.097656 -0.269531 3.628906 -0.367188 4.109375 -0.484375 C 5.148438 -0.722656 6.109375 -1.082031 6.984375 -1.5625 C 7.867188 -2.039062 8.710938 -2.570312 9.515625 -3.15625 C 9.617188 -3.238281 9.882812 -3.460938 10.3125 -3.828125 C 10.738281 -4.203125 11.203125 -4.601562 11.703125 -5.03125 C 12.210938 -5.457031 12.679688 -5.800781 13.109375 -6.0625 C 13.535156 -6.332031 13.800781 -6.429688 13.90625 -6.359375 Z M 7.46875 -15.109375 C 6.863281 -15.054688 6.476562 -15.335938 6.3125 -15.953125 C 6.175781 -16.484375 6.226562 -16.859375 6.46875 -17.078125 C 6.707031 -17.304688 7.054688 -17.4375 7.515625 -17.46875 C 7.835938 -17.488281 8.117188 -17.421875 8.359375 -17.265625 C 8.597656 -17.109375 8.769531 -16.828125 8.875 -16.421875 C 8.894531 -15.972656 8.769531 -15.65625 8.5 -15.46875 C 8.238281 -15.28125 7.894531 -15.160156 7.46875 -15.109375 Z M 7.46875 -15.109375 "/></g></g></g><g fill="#000000" fill-opacity="1"><g transform="translate(404.337438, 85.499997)"><g><path d="M 16.109375 -5.953125 C 16.160156 -5.867188 16.164062 -5.753906 16.125 -5.609375 C 16.082031 -5.460938 16 -5.335938 15.875 -5.234375 C 14.75 -4.328125 13.550781 -3.429688 12.28125 -2.546875 C 11.019531 -1.671875 9.65625 -0.875 8.1875 -0.15625 C 6.726562 0.5625 5.144531 1.109375 3.4375 1.484375 C 2.957031 1.585938 2.503906 1.640625 2.078125 1.640625 C 1.015625 1.640625 0.0820312 1.265625 -0.71875 0.515625 C -1.863281 -0.546875 -2.144531 -1.847656 -1.5625 -3.390625 C -0.0078125 -7.441406 2.945312 -10.535156 7.3125 -12.671875 C 7.820312 -12.929688 8.328125 -13.0625 8.828125 -13.0625 C 9.628906 -13.0625 10.320312 -12.71875 10.90625 -12.03125 C 11.332031 -11.570312 11.554688 -11.109375 11.578125 -10.640625 C 11.609375 -10.179688 11.550781 -9.75 11.40625 -9.34375 C 11.257812 -8.945312 11.09375 -8.628906 10.90625 -8.390625 C 10.695312 -8.046875 10.453125 -7.742188 10.171875 -7.484375 C 9.890625 -7.234375 9.628906 -7.03125 9.390625 -6.875 L 9.3125 -6.796875 C 9.226562 -6.742188 9.125 -6.671875 9 -6.578125 C 8.882812 -6.484375 8.773438 -6.4375 8.671875 -6.4375 C 8.566406 -6.457031 8.488281 -6.5 8.4375 -6.5625 C 8.351562 -6.6875 8.382812 -6.894531 8.53125 -7.1875 C 8.675781 -7.488281 8.863281 -7.789062 9.09375 -8.09375 C 9.320312 -8.394531 9.515625 -8.65625 9.671875 -8.875 C 9.992188 -9.25 10.164062 -9.472656 10.1875 -9.546875 C 10.1875 -9.628906 10.210938 -9.722656 10.265625 -9.828125 C 10.347656 -10.015625 10.398438 -10.226562 10.421875 -10.46875 C 10.453125 -10.707031 10.335938 -10.945312 10.078125 -11.1875 C 9.804688 -11.40625 9.523438 -11.515625 9.234375 -11.515625 C 8.960938 -11.515625 8.65625 -11.421875 8.3125 -11.234375 C 4.5 -9.203125 1.703125 -6.21875 -0.078125 -2.28125 C -0.503906 -1.320312 -0.375 -0.546875 0.3125 0.046875 C 0.820312 0.492188 1.476562 0.71875 2.28125 0.71875 C 2.488281 0.71875 2.703125 0.703125 2.921875 0.671875 C 4.378906 0.515625 5.707031 0.164062 6.90625 -0.375 C 8.113281 -0.925781 9.15625 -1.46875 10.03125 -2 C 10.90625 -2.507812 11.890625 -3.160156 12.984375 -3.953125 C 13.148438 -4.054688 13.304688 -4.164062 13.453125 -4.28125 C 13.597656 -4.40625 13.738281 -4.523438 13.875 -4.640625 C 14.132812 -4.878906 14.410156 -5.101562 14.703125 -5.3125 C 14.992188 -5.53125 15.300781 -5.71875 15.625 -5.875 C 15.757812 -5.957031 15.878906 -6 15.984375 -6 C 16.035156 -6 16.078125 -5.984375 16.109375 -5.953125 Z M 16.109375 -5.953125 "/></g></g></g><g fill="#000000" fill-opacity="1"><g transform="translate(419.606969, 85.499997)"><g><path d="M 23.0625 -19.625 C 23.144531 -19.539062 23.195312 -19.421875 23.21875 -19.265625 C 23.21875 -19.179688 23.195312 -19.101562 23.15625 -19.03125 C 23.125 -18.96875 23.015625 -18.9375 22.828125 -18.9375 C 22.742188 -18.9375 22.65625 -18.941406 22.5625 -18.953125 C 22.46875 -18.972656 22.378906 -18.984375 22.296875 -18.984375 L 22.109375 -19.03125 C 20.640625 -19.21875 19.191406 -19.335938 17.765625 -19.390625 C 16.335938 -19.441406 14.957031 -19.46875 13.625 -19.46875 L 11.59375 -19.421875 C 11.25 -19.421875 10.894531 -19.425781 10.53125 -19.4375 C 10.164062 -19.457031 9.8125 -19.46875 9.46875 -19.46875 C 9.039062 -19.46875 8.679688 -19.410156 8.390625 -19.296875 C 8.097656 -19.191406 7.875 -18.96875 7.71875 -18.625 L 7 -17.265625 C 5.257812 -13.910156 3.5625 -10.457031 1.90625 -6.90625 C 0.257812 -3.363281 -1.050781 0.347656 -2.03125 4.234375 C -2.8125 7.273438 -3.175781 10.0625 -3.125 12.59375 C -3.125 12.695312 -3.125 12.800781 -3.125 12.90625 C -3.125 13.144531 -3.113281 13.367188 -3.09375 13.578125 C -3.082031 13.796875 -3 14 -2.84375 14.1875 C -2.601562 14.425781 -2.242188 14.570312 -1.765625 14.625 C -1.648438 14.625 -1.566406 14.664062 -1.515625 14.75 C -1.410156 14.851562 -1.34375 14.984375 -1.3125 15.140625 C -1.289062 15.328125 -1.332031 15.453125 -1.4375 15.515625 C -1.539062 15.585938 -1.648438 15.625 -1.765625 15.625 L -1.796875 15.625 C -2.972656 15.625 -3.71875 15.066406 -4.03125 13.953125 C -4.21875 13.359375 -4.304688 12.789062 -4.296875 12.25 C -4.285156 11.707031 -4.253906 11.164062 -4.203125 10.625 L -4.15625 10.3125 C -3.945312 7.914062 -3.546875 5.597656 -2.953125 3.359375 C -2.367188 1.117188 -1.671875 -1.050781 -0.859375 -3.15625 C -0.046875 -5.257812 0.769531 -7.335938 1.59375 -9.390625 L 1.84375 -9.90625 C 2.238281 -10.925781 2.675781 -11.921875 3.15625 -12.890625 C 3.632812 -13.859375 4.101562 -14.820312 4.5625 -15.78125 C 4.800781 -16.238281 5.03125 -16.691406 5.25 -17.140625 C 5.476562 -17.597656 5.703125 -18.050781 5.921875 -18.5 C 5.972656 -18.632812 6.003906 -18.785156 6.015625 -18.953125 C 6.023438 -19.128906 5.925781 -19.40625 5.71875 -19.78125 L 5.640625 -19.859375 L 5.5625 -19.859375 C 4.96875 -19.859375 4.363281 -19.859375 3.75 -19.859375 C 3.144531 -19.859375 2.535156 -19.859375 1.921875 -19.859375 C 1.304688 -19.890625 0.6875 -19.90625 0.0625 -19.90625 C -0.5625 -19.90625 -1.195312 -19.90625 -1.84375 -19.90625 C -3.8125 -19.90625 -5.554688 -19.878906 -7.078125 -19.828125 C -7.390625 -19.796875 -7.707031 -19.78125 -8.03125 -19.78125 C -8.351562 -19.78125 -8.675781 -19.78125 -9 -19.78125 C -9.820312 -19.757812 -10.648438 -19.726562 -11.484375 -19.6875 C -12.328125 -19.644531 -13.132812 -19.53125 -13.90625 -19.34375 C -14.144531 -19.289062 -14.347656 -19.265625 -14.515625 -19.265625 C -14.691406 -19.265625 -14.847656 -19.304688 -14.984375 -19.390625 C -15.066406 -19.460938 -15.132812 -19.59375 -15.1875 -19.78125 C -15.238281 -20.019531 -15.117188 -20.140625 -14.828125 -20.140625 C -14.773438 -20.140625 -14.664062 -20.132812 -14.5 -20.125 C -14.34375 -20.113281 -14.265625 -20.109375 -14.265625 -20.109375 L -14.15625 -20.109375 C -12.65625 -20.234375 -11.175781 -20.316406 -9.71875 -20.359375 C -8.269531 -20.398438 -6.972656 -20.421875 -5.828125 -20.421875 C -5.222656 -20.421875 -4.601562 -20.421875 -3.96875 -20.421875 C -3.34375 -20.421875 -2.726562 -20.421875 -2.125 -20.421875 C -1.507812 -20.398438 -0.890625 -20.390625 -0.265625 -20.390625 C 0.359375 -20.390625 0.976562 -20.390625 1.59375 -20.390625 C 2.1875 -20.390625 2.773438 -20.390625 3.359375 -20.390625 C 3.941406 -20.390625 4.523438 -20.398438 5.109375 -20.421875 C 5.671875 -20.453125 6.171875 -20.550781 6.609375 -20.71875 C 7.054688 -20.894531 7.410156 -21.25 7.671875 -21.78125 C 8.796875 -24.125 10.34375 -26.363281 12.3125 -28.5 C 12.332031 -28.550781 12.382812 -28.617188 12.46875 -28.703125 C 12.550781 -28.804688 12.640625 -28.910156 12.734375 -29.015625 C 12.828125 -29.117188 12.9375 -29.171875 13.0625 -29.171875 C 13.195312 -29.171875 13.359375 -29.09375 13.546875 -28.9375 C 13.785156 -28.726562 13.878906 -28.515625 13.828125 -28.296875 C 13.773438 -28.085938 13.671875 -27.863281 13.515625 -27.625 C 13.296875 -27.320312 13.09375 -27.035156 12.90625 -26.765625 C 12.71875 -26.503906 12.53125 -26.253906 12.34375 -26.015625 C 11.757812 -25.222656 11.175781 -24.390625 10.59375 -23.515625 C 10.007812 -22.648438 9.460938 -21.695312 8.953125 -20.65625 L 8.828125 -20.46875 L 12.390625 -20.46875 C 15.210938 -20.46875 18.410156 -20.253906 21.984375 -19.828125 C 22.035156 -19.828125 22.128906 -19.828125 22.265625 -19.828125 C 22.398438 -19.828125 22.539062 -19.8125 22.6875 -19.78125 C 22.832031 -19.757812 22.957031 -19.707031 23.0625 -19.625 Z M 23.0625 -19.625 "/></g></g></g><g fill="#000000" fill-opacity="1"><g transform="translate(426.482258, 85.499997)"><g><path d="M 14.34375 -6.46875 C 14.5625 -6.445312 14.679688 -6.410156 14.703125 -6.359375 C 14.734375 -6.191406 14.640625 -6.039062 14.421875 -5.90625 C 14.210938 -5.78125 13.972656 -5.671875 13.703125 -5.578125 C 13.441406 -5.484375 13.242188 -5.421875 13.109375 -5.390625 C 12.421875 -5.179688 11.726562 -5.078125 11.03125 -5.078125 C 10.394531 -5.078125 9.769531 -5.144531 9.15625 -5.28125 C 8.832031 -5.351562 8.550781 -5.390625 8.3125 -5.390625 C 7.675781 -5.390625 7.210938 -5.054688 6.921875 -4.390625 C 6.140625 -2.691406 4.910156 -1.296875 3.234375 -0.203125 C 3.023438 -0.0664062 2.78125 0.0546875 2.5 0.171875 C 2.21875 0.296875 1.914062 0.359375 1.59375 0.359375 C 1.195312 0.359375 0.8125 0.238281 0.4375 0 C -0.09375 -0.34375 -0.394531 -0.765625 -0.46875 -1.265625 C -0.550781 -1.773438 -0.582031 -2.300781 -0.5625 -2.84375 C -0.394531 -5.5625 0.671875 -7.929688 2.640625 -9.953125 C 2.878906 -10.191406 3.117188 -10.429688 3.359375 -10.671875 C 3.597656 -10.910156 3.835938 -11.148438 4.078125 -11.390625 C 4.472656 -11.734375 4.910156 -11.90625 5.390625 -11.90625 C 5.710938 -11.90625 6.035156 -11.835938 6.359375 -11.703125 C 7.097656 -11.359375 7.601562 -10.679688 7.875 -9.671875 C 8.113281 -8.816406 8.125 -7.988281 7.90625 -7.1875 C 7.800781 -6.738281 7.84375 -6.40625 8.03125 -6.1875 C 8.25 -5.945312 8.632812 -5.816406 9.1875 -5.796875 C 9.539062 -5.796875 9.875 -5.796875 10.1875 -5.796875 C 10.957031 -5.796875 11.664062 -5.847656 12.3125 -5.953125 C 12.445312 -5.953125 12.578125 -5.976562 12.703125 -6.03125 C 12.835938 -6.082031 12.972656 -6.148438 13.109375 -6.234375 C 13.265625 -6.285156 13.429688 -6.34375 13.609375 -6.40625 C 13.785156 -6.476562 13.96875 -6.515625 14.15625 -6.515625 C 14.226562 -6.515625 14.289062 -6.5 14.34375 -6.46875 Z M 6.078125 -6.078125 C 6.078125 -6.148438 6.078125 -6.226562 6.078125 -6.3125 C 5.992188 -6.445312 5.910156 -6.550781 5.828125 -6.625 C 5.753906 -6.707031 5.675781 -6.789062 5.59375 -6.875 C 5.40625 -7.0625 5.21875 -7.238281 5.03125 -7.40625 C 4.84375 -7.582031 4.644531 -7.765625 4.4375 -7.953125 C 4.382812 -7.984375 4.304688 -8.0625 4.203125 -8.1875 C 4.085938 -8.320312 3.96875 -8.441406 3.84375 -8.546875 C 3.726562 -8.660156 3.609375 -8.71875 3.484375 -8.71875 C 3.316406 -8.71875 3.164062 -8.632812 3.03125 -8.46875 C 2.257812 -7.375 1.628906 -6.296875 1.140625 -5.234375 C 0.648438 -4.171875 0.390625 -3 0.359375 -1.71875 C 0.359375 -1.289062 0.476562 -0.957031 0.71875 -0.71875 C 0.875 -0.582031 1.070312 -0.515625 1.3125 -0.515625 C 1.5 -0.515625 1.703125 -0.566406 1.921875 -0.671875 C 3.066406 -1.234375 3.941406 -1.992188 4.546875 -2.953125 C 5.160156 -3.910156 5.65625 -4.832031 6.03125 -5.71875 C 6.0625 -5.769531 6.078125 -5.890625 6.078125 -6.078125 Z M 6.390625 -7.671875 C 6.472656 -8.015625 6.515625 -8.363281 6.515625 -8.71875 C 6.515625 -9.082031 6.328125 -9.441406 5.953125 -9.796875 C 5.847656 -9.921875 5.71875 -9.984375 5.5625 -9.984375 C 5.34375 -9.984375 5.144531 -9.90625 4.96875 -9.75 C 4.800781 -9.59375 4.691406 -9.445312 4.640625 -9.3125 C 4.503906 -8.914062 4.554688 -8.578125 4.796875 -8.296875 C 5.035156 -8.015625 5.300781 -7.753906 5.59375 -7.515625 C 5.675781 -7.460938 5.765625 -7.398438 5.859375 -7.328125 C 5.953125 -7.265625 6.035156 -7.191406 6.109375 -7.109375 L 6.28125 -6.953125 L 6.3125 -7.109375 C 6.3125 -7.222656 6.320312 -7.320312 6.34375 -7.40625 C 6.375 -7.5 6.390625 -7.585938 6.390625 -7.671875 Z M 6.390625 -7.671875 "/></g></g></g><g fill="#000000" fill-opacity="1"><g transform="translate(440.032954, 85.499997)"><g><path d="M 17.46875 -6.1875 C 17.625 -6.164062 17.71875 -6.128906 17.75 -6.078125 C 17.769531 -5.992188 17.71875 -5.898438 17.59375 -5.796875 C 17.101562 -5.523438 16.554688 -5.390625 15.953125 -5.390625 C 15.203125 -5.390625 14.425781 -5.585938 13.625 -5.984375 C 12.832031 -6.390625 12.15625 -6.910156 11.59375 -7.546875 C 11.082031 -8.109375 10.691406 -8.519531 10.421875 -8.78125 C 10.160156 -9.050781 9.882812 -9.1875 9.59375 -9.1875 C 9.40625 -9.1875 9.191406 -9.113281 8.953125 -8.96875 C 8.710938 -8.820312 8.421875 -8.628906 8.078125 -8.390625 C 6.796875 -7.484375 5.59375 -6.488281 4.46875 -5.40625 C 3.351562 -4.332031 2.273438 -3.25 1.234375 -2.15625 L 0.234375 -1.15625 C 0.210938 -1.101562 0.148438 -1.007812 0.046875 -0.875 C -0.0351562 -0.769531 -0.125 -0.671875 -0.21875 -0.578125 C -0.3125 -0.484375 -0.425781 -0.4375 -0.5625 -0.4375 C -0.71875 -0.4375 -0.914062 -0.515625 -1.15625 -0.671875 C -1.445312 -0.890625 -1.578125 -1.109375 -1.546875 -1.328125 C -1.523438 -1.554688 -1.488281 -1.78125 -1.4375 -2 L -1.359375 -2.15625 C -0.296875 -5.539062 1.007812 -8.523438 2.5625 -11.109375 L 2.640625 -11.1875 C 2.722656 -11.351562 2.828125 -11.515625 2.953125 -11.671875 C 3.085938 -11.828125 3.234375 -11.90625 3.390625 -11.90625 C 3.503906 -11.90625 3.625 -11.867188 3.75 -11.796875 C 3.9375 -11.660156 4.054688 -11.523438 4.109375 -11.390625 C 4.171875 -11.253906 4.171875 -11.113281 4.109375 -10.96875 C 4.054688 -10.820312 3.992188 -10.679688 3.921875 -10.546875 C 3.867188 -10.390625 3.828125 -10.285156 3.796875 -10.234375 L 3.484375 -9.46875 C 3.316406 -9.070312 3.144531 -8.664062 2.96875 -8.25 C 2.800781 -7.84375 2.625 -7.4375 2.4375 -7.03125 C 2.332031 -6.769531 2.210938 -6.503906 2.078125 -6.234375 C 1.941406 -5.960938 1.820312 -5.695312 1.71875 -5.4375 C 1.6875 -5.4375 1.628906 -5.328125 1.546875 -5.109375 C 1.472656 -4.898438 1.398438 -4.675781 1.328125 -4.4375 C 1.265625 -4.195312 1.257812 -4.035156 1.3125 -3.953125 L 1.40625 -3.921875 L 1.484375 -3.875 C 1.742188 -3.925781 1.96875 -4.03125 2.15625 -4.1875 C 2.34375 -4.351562 2.515625 -4.53125 2.671875 -4.71875 C 2.734375 -4.769531 2.796875 -4.828125 2.859375 -4.890625 C 2.921875 -4.960938 2.992188 -5.035156 3.078125 -5.109375 L 4.75 -6.515625 C 5.289062 -6.960938 5.828125 -7.40625 6.359375 -7.84375 C 6.890625 -8.289062 7.421875 -8.726562 7.953125 -9.15625 C 8.671875 -9.6875 9.21875 -9.953125 9.59375 -9.953125 C 9.9375 -9.953125 10.273438 -9.796875 10.609375 -9.484375 C 10.941406 -9.179688 11.363281 -8.722656 11.875 -8.109375 C 12.425781 -7.421875 13.066406 -6.882812 13.796875 -6.5 C 14.535156 -6.113281 15.28125 -5.921875 16.03125 -5.921875 C 16.269531 -5.921875 16.507812 -5.945312 16.75 -6 C 16.820312 -6 16.925781 -6.023438 17.0625 -6.078125 C 17.25 -6.148438 17.382812 -6.1875 17.46875 -6.1875 Z M 17.46875 -6.1875 "/></g></g></g><g fill="#000000" fill-opacity="1"><g transform="translate(456.94137, 85.499997)"><g><path d="M 13.90625 -6.359375 C 13.988281 -6.304688 14.03125 -6.1875 14.03125 -6 C 14.03125 -5.8125 13.914062 -5.632812 13.6875 -5.46875 C 13.457031 -5.3125 13.28125 -5.179688 13.15625 -5.078125 C 12.695312 -4.671875 12.226562 -4.28125 11.75 -3.90625 C 11.269531 -3.539062 10.789062 -3.1875 10.3125 -2.84375 C 9.300781 -2.125 8.226562 -1.484375 7.09375 -0.921875 C 5.957031 -0.359375 4.753906 0.09375 3.484375 0.4375 C 2.941406 0.570312 2.378906 0.640625 1.796875 0.640625 C 1.210938 0.640625 0.628906 0.375 0.046875 -0.15625 C -0.546875 -0.664062 -0.875 -1.207031 -0.9375 -1.78125 C -1.007812 -2.351562 -0.960938 -2.90625 -0.796875 -3.4375 C -0.316406 -5.25 0.359375 -6.941406 1.234375 -8.515625 C 2.117188 -10.085938 3.171875 -11.539062 4.390625 -12.875 C 4.523438 -13.0625 4.691406 -13.234375 4.890625 -13.390625 C 5.097656 -13.546875 5.375 -13.492188 5.71875 -13.234375 C 6.09375 -12.941406 6.210938 -12.679688 6.078125 -12.453125 C 5.941406 -12.222656 5.820312 -12.015625 5.71875 -11.828125 C 4.863281 -10.472656 4.035156 -9.113281 3.234375 -7.75 C 2.429688 -6.394531 1.726562 -4.972656 1.125 -3.484375 C 1.007812 -3.210938 0.875 -2.929688 0.71875 -2.640625 C 0.5625 -2.347656 0.484375 -2.046875 0.484375 -1.734375 C 0.484375 -1.429688 0.628906 -1.132812 0.921875 -0.84375 C 1.398438 -0.332031 1.929688 -0.113281 2.515625 -0.1875 C 3.097656 -0.269531 3.628906 -0.367188 4.109375 -0.484375 C 5.148438 -0.722656 6.109375 -1.082031 6.984375 -1.5625 C 7.867188 -2.039062 8.710938 -2.570312 9.515625 -3.15625 C 9.617188 -3.238281 9.882812 -3.460938 10.3125 -3.828125 C 10.738281 -4.203125 11.203125 -4.601562 11.703125 -5.03125 C 12.210938 -5.457031 12.679688 -5.800781 13.109375 -6.0625 C 13.535156 -6.332031 13.800781 -6.429688 13.90625 -6.359375 Z M 7.46875 -15.109375 C 6.863281 -15.054688 6.476562 -15.335938 6.3125 -15.953125 C 6.175781 -16.484375 6.226562 -16.859375 6.46875 -17.078125 C 6.707031 -17.304688 7.054688 -17.4375 7.515625 -17.46875 C 7.835938 -17.488281 8.117188 -17.421875 8.359375 -17.265625 C 8.597656 -17.109375 8.769531 -16.828125 8.875 -16.421875 C 8.894531 -15.972656 8.769531 -15.65625 8.5 -15.46875 C 8.238281 -15.28125 7.894531 -15.160156 7.46875 -15.109375 Z M 7.46875 -15.109375 "/></g></g></g><g fill="#000000" fill-opacity="1"><g transform="translate(470.132334, 85.499997)"><g><path d="M 20.546875 -7.796875 C 20.679688 -7.765625 20.757812 -7.738281 20.78125 -7.71875 C 20.863281 -7.582031 20.8125 -7.40625 20.625 -7.1875 C 17.875 -4.3125 14.53125 -1.78125 10.59375 0.40625 L 10.3125 0.515625 C 10.175781 0.617188 10.019531 0.710938 9.84375 0.796875 C 9.675781 0.878906 9.5 0.921875 9.3125 0.921875 C 9.039062 0.921875 8.757812 0.800781 8.46875 0.5625 C 8.125 0.238281 7.957031 -0.0625 7.96875 -0.34375 C 7.988281 -0.625 8.050781 -0.921875 8.15625 -1.234375 C 8.175781 -1.285156 8.203125 -1.335938 8.234375 -1.390625 C 8.265625 -1.453125 8.28125 -1.507812 8.28125 -1.5625 C 8.519531 -2.414062 8.816406 -3.234375 9.171875 -4.015625 C 9.535156 -4.804688 9.898438 -5.5625 10.265625 -6.28125 C 10.265625 -6.28125 10.351562 -6.4375 10.53125 -6.75 C 10.707031 -7.070312 10.894531 -7.410156 11.09375 -7.765625 C 11.289062 -8.128906 11.429688 -8.378906 11.515625 -8.515625 C 11.515625 -8.535156 11.566406 -8.613281 11.671875 -8.75 C 11.910156 -9.09375 12.113281 -9.453125 12.28125 -9.828125 C 12.457031 -10.203125 12.507812 -10.5 12.4375 -10.71875 C 12.375 -10.84375 12.289062 -10.929688 12.1875 -10.984375 C 12.113281 -11.015625 12.046875 -11.03125 11.984375 -11.03125 C 11.722656 -11.03125 11.429688 -10.882812 11.109375 -10.59375 C 10.785156 -10.300781 10.625 -10.15625 10.625 -10.15625 C 10.445312 -9.9375 10.265625 -9.664062 10.078125 -9.34375 C 9.890625 -9.03125 9.78125 -8.675781 9.75 -8.28125 L 9.75 -8.109375 C 9.75 -8.003906 9.742188 -7.882812 9.734375 -7.75 C 9.722656 -7.613281 9.675781 -7.546875 9.59375 -7.546875 C 9.5625 -7.546875 9.5 -7.566406 9.40625 -7.609375 C 9.3125 -7.648438 9.1875 -7.75 9.03125 -7.90625 L 8.90625 -8.03125 L 8.671875 -7.75 C 8.585938 -7.695312 8.515625 -7.628906 8.453125 -7.546875 C 8.390625 -7.472656 8.332031 -7.410156 8.28125 -7.359375 C 7.957031 -7.003906 7.65625 -6.660156 7.375 -6.328125 C 7.09375 -5.992188 6.804688 -5.671875 6.515625 -5.359375 C 5.878906 -4.609375 5.226562 -3.863281 4.5625 -3.125 C 3.894531 -2.394531 3.171875 -1.710938 2.390625 -1.078125 L 2.125 -0.84375 C 1.882812 -0.625 1.628906 -0.421875 1.359375 -0.234375 C 1.085938 -0.046875 0.796875 0.046875 0.484375 0.046875 C 0.210938 0.046875 -0.0664062 -0.046875 -0.359375 -0.234375 C -0.921875 -0.640625 -1.1875 -1.109375 -1.15625 -1.640625 C -1.132812 -2.171875 -1.054688 -2.691406 -0.921875 -3.203125 L -0.875 -3.4375 C -0.238281 -6 0.90625 -8.195312 2.5625 -10.03125 C 3.707031 -11.3125 5.066406 -11.953125 6.640625 -11.953125 L 6.75 -11.953125 C 7.101562 -11.953125 7.4375 -11.929688 7.75 -11.890625 C 8.070312 -11.847656 8.3125 -11.722656 8.46875 -11.515625 C 8.945312 -10.816406 9.398438 -10.46875 9.828125 -10.46875 C 10.046875 -10.46875 10.234375 -10.535156 10.390625 -10.671875 C 10.546875 -10.804688 10.71875 -10.953125 10.90625 -11.109375 L 11.03125 -11.234375 C 11.269531 -11.472656 11.535156 -11.660156 11.828125 -11.796875 C 11.960938 -11.847656 12.085938 -11.890625 12.203125 -11.921875 C 12.328125 -11.960938 12.441406 -11.984375 12.546875 -11.984375 C 12.734375 -11.984375 12.921875 -11.921875 13.109375 -11.796875 C 13.316406 -11.609375 13.414062 -11.421875 13.40625 -11.234375 C 13.394531 -11.046875 13.335938 -10.84375 13.234375 -10.625 C 12.773438 -9.644531 12.316406 -8.679688 11.859375 -7.734375 C 11.410156 -6.785156 10.960938 -5.847656 10.515625 -4.921875 L 9.796875 -3.390625 C 9.628906 -3.097656 9.484375 -2.789062 9.359375 -2.46875 C 9.242188 -2.15625 9.132812 -1.851562 9.03125 -1.5625 L 8.828125 -0.953125 C 8.722656 -0.691406 8.710938 -0.492188 8.796875 -0.359375 C 8.847656 -0.273438 8.925781 -0.207031 9.03125 -0.15625 C 9.113281 -0.132812 9.207031 -0.125 9.3125 -0.125 C 9.582031 -0.125 9.890625 -0.203125 10.234375 -0.359375 C 10.578125 -0.515625 10.816406 -0.632812 10.953125 -0.71875 C 11.804688 -1.300781 12.644531 -1.890625 13.46875 -2.484375 C 14.289062 -3.085938 15.09375 -3.6875 15.875 -4.28125 C 16.132812 -4.46875 16.382812 -4.660156 16.625 -4.859375 C 16.863281 -5.054688 17.117188 -5.25 17.390625 -5.4375 C 17.546875 -5.570312 17.707031 -5.710938 17.875 -5.859375 C 18.050781 -6.003906 18.234375 -6.144531 18.421875 -6.28125 C 18.503906 -6.351562 18.582031 -6.421875 18.65625 -6.484375 C 18.738281 -6.554688 18.832031 -6.617188 18.9375 -6.671875 C 19.070312 -6.804688 19.21875 -6.929688 19.375 -7.046875 C 19.539062 -7.171875 19.703125 -7.300781 19.859375 -7.4375 L 20.03125 -7.515625 C 20.101562 -7.566406 20.1875 -7.625 20.28125 -7.6875 C 20.375 -7.757812 20.460938 -7.796875 20.546875 -7.796875 Z M 8.875 -9.3125 C 9.132812 -9.601562 9.117188 -9.953125 8.828125 -10.359375 C 8.484375 -10.804688 8.070312 -11.03125 7.59375 -11.03125 C 7.539062 -11.03125 7.488281 -11.03125 7.4375 -11.03125 C 6.769531 -10.894531 6.179688 -10.679688 5.671875 -10.390625 C 4.503906 -9.703125 3.5625 -8.835938 2.84375 -7.796875 C 2.125 -6.753906 1.492188 -5.726562 0.953125 -4.71875 C 0.898438 -4.613281 0.835938 -4.503906 0.765625 -4.390625 C 0.703125 -4.285156 0.644531 -4.179688 0.59375 -4.078125 C 0.4375 -3.835938 0.289062 -3.582031 0.15625 -3.3125 C 0.0195312 -3.050781 -0.0820312 -2.757812 -0.15625 -2.4375 C -0.1875 -2.300781 -0.203125 -2.0625 -0.203125 -1.71875 C -0.203125 -1.375 -0.109375 -1.117188 0.078125 -0.953125 C 0.160156 -0.847656 0.269531 -0.796875 0.40625 -0.796875 C 0.507812 -0.796875 0.640625 -0.835938 0.796875 -0.921875 C 1.941406 -1.640625 2.960938 -2.488281 3.859375 -3.46875 C 4.753906 -4.457031 5.613281 -5.457031 6.4375 -6.46875 C 6.832031 -6.945312 7.226562 -7.425781 7.625 -7.90625 C 8.03125 -8.394531 8.445312 -8.863281 8.875 -9.3125 Z M 8.875 -9.3125 "/></g></g></g></svg>